<?xml version="1.0" encoding="UTF-8"?>
<svg version="1.1" xmlns="http://www.w3.org/2000/svg" width="256" height="256">
<path d="M0 0 C3.125 1.5625 3.125 1.5625 5 4 C5.5 7.5625 5.5 7.5625 5 11 C4.49082031 11.4846875 3.98164063 11.969375 3.45703125 12.46875 C2.73580078 13.22671875 2.73580078 13.22671875 2 14 C2.33708501 21.07878517 3.83522745 28.0113647 5 35 C17.21 35 29.42 35 42 35 C44.25 47.375 44.25 47.375 44.625 52.6875 C44.73714844 54.20923828 44.73714844 54.20923828 44.8515625 55.76171875 C44.90054688 56.50035156 44.94953125 57.23898438 45 58 C45.99 58.33 46.98 58.66 48 59 C50.26809625 54.68286403 50.26809625 54.68286403 50.875 50 C50.07188498 48.16430852 49.19547063 46.36114388 48.3125 44.5625 C47 41 47 41 47.75 38.125 C49 36 49 36 50 35 C54.55135866 34.53714997 57.71394489 34.30654103 61.5 37.0625 C64 40 64 40 64.5625 43.625 C64 47 64 47 62.6875 48.9375 C61 50 61 50 58 50 C58.15597656 50.97839844 58.31195313 51.95679688 58.47265625 52.96484375 C59.56339316 60.17419166 60.27230144 66.74788178 59 74 C57.22925083 74.02705729 55.45838289 74.04642195 53.6875 74.0625 C52.70136719 74.07410156 51.71523437 74.08570312 50.69921875 74.09765625 C48 74 48 74 45 73 C45.01160156 74.31355469 45.02320313 75.62710938 45.03515625 76.98046875 C45.04453828 78.71614441 45.05363804 80.45182161 45.0625 82.1875 C45.07087891 83.05181641 45.07925781 83.91613281 45.08789062 84.80664062 C45.10396812 89.00286769 45.07559038 92.90936886 44 97 C37.86581065 98.02379878 31.77155849 98.31607673 25.5625 98.5625 C24.54478516 98.60568359 23.52707031 98.64886719 22.47851562 98.69335938 C19.98578972 98.79868582 17.49297662 98.90081672 15 99 C15.33 99.99 15.66 100.98 16 102 C16 104.31 16 106.62 16 109 C22.6 109 29.2 109 36 109 C36.33 110.32 36.66 111.64 37 113 C37.58265625 112.83242187 38.1653125 112.66484375 38.765625 112.4921875 C47.85124441 110.23506821 56.03140421 111.05125055 64.3125 115.5625 C70.99789065 119.96559948 76.17327758 126.08420285 78 134 C78.88751953 133.89558594 78.88751953 133.89558594 79.79296875 133.7890625 C82.30547692 133.61691675 84.51100562 133.59491199 87 134 C92.44706015 138.98348056 94.15030473 144.11295512 94.625 151.3125 C94.73714844 152.91544922 94.73714844 152.91544922 94.8515625 154.55078125 C94.92503906 155.76314453 94.92503906 155.76314453 95 157 C91.54798361 155.52278578 89.35038064 153.56205999 86.75 150.875 C86.04359375 150.15054688 85.3371875 149.42609375 84.609375 148.6796875 C83.81273437 147.84824219 83.81273437 147.84824219 83 147 C79.93224489 148.42431487 77.78959901 149.90780074 75 152 C75.66 155.96 76.32 159.92 77 164 C71.35342122 162.87068424 71.35342122 162.87068424 68.25 160.0625 C67.65703125 159.53785156 67.0640625 159.01320312 66.453125 158.47265625 C63.99354702 155.98001943 63.99447651 154.88953026 63.8125 151.25 C63.84652135 147.52126031 64.60742672 144.4814332 66 141 C59.3901577 134.79197182 54.35085625 132.04447149 45.2578125 131.42578125 C43.50041748 131.3026355 43.50041748 131.3026355 41.70751953 131.17700195 C40.81403809 131.11859131 39.92055664 131.06018066 39 131 C39.06058594 131.70382813 39.12117187 132.40765625 39.18359375 133.1328125 C42.28897116 169.72849087 42.28897116 169.72849087 39 180 C36.03 180 33.06 180 30 180 C30.33 180.99 30.66 181.98 31 183 C31.05844269 185.4301965 31.06491218 187.8366119 31.03515625 190.265625 C31.03887074 191.72787161 31.04480118 193.19011395 31.05273438 194.65234375 C31.06326743 196.94854886 31.06263985 199.2416538 31.02416992 201.53759766 C30.61505165 210.41874742 30.61505165 210.41874742 33.70043945 218.42285156 C35.71596562 220.14302913 37.77908516 221.56136384 40 223 C42.34765625 225.765625 42.34765625 225.765625 44.0625 228.25 C44.65160156 229.08015625 45.24070313 229.9103125 45.84765625 230.765625 C46.22792969 231.50296875 46.60820312 232.2403125 47 233 C46.67 233.99 46.34 234.98 46 236 C28.18 235.505 28.18 235.505 10 235 C10.33 230.05 10.66 225.1 11 220 C11.17010331 217.2606279 11.33755335 214.5210868 11.5 211.78125 C11.5831866 210.40363697 11.66652396 209.02603303 11.75 207.6484375 C11.87641233 205.55769606 12.00194686 203.46691862 12.125 201.37597656 C12.24735894 199.30256614 12.37337219 197.22940354 12.5 195.15625 C12.5721875 193.94775391 12.644375 192.73925781 12.71875 191.49414062 C13.00149077 187.98147927 13.50162801 184.48860394 14 181 C8.39 181 2.78 181 -3 181 C-2.67 182.32 -2.34 183.64 -2 185 C-1.73866185 187.60177041 -1.51176891 190.19414847 -1.31640625 192.80078125 C-1.19226746 194.3509283 -1.06791164 195.90105799 -0.94335938 197.45117188 C-0.75197057 199.87992281 -0.56278206 202.30879821 -0.37768555 204.73803711 C-0.19687931 207.09282878 -0.00717827 209.44677882 0.18359375 211.80078125 C0.23575546 212.51768631 0.28791718 213.23459137 0.34165955 213.97322083 C0.61712828 217.31327617 1.08839044 220.2953945 2.05102539 223.51245117 C3 227 3 227 3 235 C-9.21 235.33 -21.42 235.66 -34 236 C-32.95152982 231.8061193 -31.61580672 229.80095585 -29.0625 226.375 C-28.35222656 225.41335937 -27.64195313 224.45171875 -26.91015625 223.4609375 C-25 221 -25 221 -23 219 C-22.89539168 216.12648112 -22.91099639 213.35899616 -23.0234375 210.4921875 C-23.04846344 209.65156769 -23.07348938 208.81094788 -23.09927368 207.94485474 C-23.18158146 205.25449942 -23.27812836 202.56486653 -23.375 199.875 C-23.43322861 198.05341513 -23.49053211 196.23180043 -23.546875 194.41015625 C-23.68717614 189.93968712 -23.84025101 185.46981473 -24 181 C-24.85464844 181.01160156 -25.70929688 181.02320313 -26.58984375 181.03515625 C-27.69457031 181.04417969 -28.79929687 181.05320313 -29.9375 181.0625 C-31.03964844 181.07410156 -32.14179687 181.08570313 -33.27734375 181.09765625 C-36 181 -36 181 -37 180 C-37.30024854 177.90617638 -37.53987429 175.8036039 -37.75390625 173.69921875 C-37.88603516 172.41208984 -38.01816406 171.12496094 -38.15429688 169.79882812 C-38.22124756 169.12408447 -38.28819824 168.44934082 -38.35717773 167.75415039 C-38.56066107 165.70600958 -38.77095245 163.65865814 -38.98242188 161.61132812 C-40 151.57088978 -40 151.57088978 -40 147 C-40.5671875 147.16113281 -41.134375 147.32226562 -41.71875 147.48828125 C-52.38197651 149.88020363 -65.67931423 147.58197786 -75 142 C-82.83365769 136.42277632 -88.09428521 129.52857397 -90 120 C-90.78092189 113.90880929 -91.50818165 108.03272658 -90 102 C-91.093125 101.79375 -92.18625 101.5875 -93.3125 101.375 C-97 100 -97 100 -99 97.375 C-101.02388938 90.54437335 -98.93717555 85.21852042 -96.1328125 78.98046875 C-94.97404363 76.9546211 -93.72290063 75.56045571 -92 74 C-91.49453964 76.08201528 -90.99583165 78.16567067 -90.5 80.25 C-90.2215625 81.41015625 -89.943125 82.5703125 -89.65625 83.765625 C-89 87 -89 87 -89 91 C-88.01 90.505 -88.01 90.505 -87 90 C-85.46331135 89.77532169 -83.92031946 89.59203195 -82.375 89.4375 C-80.209375 89.2209375 -80.209375 89.2209375 -78 89 C-77.01 85.37 -76.02 81.74 -75 78 C-72 79 -72 79 -70.3125 82 C-68.66827756 86.27321981 -68.05807973 90.48557132 -69 95 C-71.4375 97.875 -71.4375 97.875 -74 100 C-75.57470367 104.72411102 -73.85699476 108.50771121 -72 113 C-68.88308737 118.4340911 -64.71734091 121.26076318 -58.87890625 123.35546875 C-53.61605507 124.53371902 -48.35654773 124.30225034 -43 124 C-42.67 121.03 -42.34 118.06 -42 115 C-34.94546999 113.79556805 -28.16562789 112.71899498 -21 113 C-21.165 112.34 -21.33 111.68 -21.5 111 C-22.12104599 107.27372404 -22.03096858 103.77816724 -22 100 C-23.12277344 100.01160156 -24.24554688 100.02320312 -25.40234375 100.03515625 C-33.01306916 100.08951251 -40.4500307 100.09817735 -48 99 C-50.13031092 90.39602581 -50.58440013 81.8150919 -51 73 C-51.55300781 73.16242188 -52.10601562 73.32484375 -52.67578125 73.4921875 C-55.2417004 74.05280849 -57.56299677 74.13275333 -60.1875 74.125 C-61.06792969 74.12757812 -61.94835937 74.13015625 -62.85546875 74.1328125 C-65 74 -65 74 -66 73 C-66.37395662 65.60885747 -65.99306552 58.32385819 -65 51 C-66.2065625 50.4740625 -66.2065625 50.4740625 -67.4375 49.9375 C-70 48 -70 48 -71.0625 44.625 C-70.98768176 40.28554185 -70.06407081 38.97652593 -67 36 C-63.81295882 34.40647941 -60.46825691 34.6170023 -57 35 C-55 36.125 -55 36.125 -54 38 C-53.5332488 41.57842586 -53.59771364 43.37243328 -55.5625 46.4375 C-58.02287556 50.82338687 -56.29854689 55.36233253 -55 60 C-53.02 59.505 -53.02 59.505 -51 59 C-51.01160156 58.07058594 -51.02320313 57.14117187 -51.03515625 56.18359375 C-51.13154173 42.97878359 -51.13154173 42.97878359 -50 38 C-47.13231454 35.13231454 -44.21347695 35.64651855 -40.3671875 35.5859375 C-39.61535187 35.56657135 -38.86351624 35.5472052 -38.08889771 35.5272522 C-35.68438101 35.46740853 -33.27981656 35.42105274 -30.875 35.375 C-29.24607272 35.33682454 -27.61716572 35.29777307 -25.98828125 35.2578125 C-21.99229223 35.1600513 -17.99652266 35.08052379 -14 35 C-11.03 25.595 -11.03 25.595 -8 16 C-9.98 15.34 -11.96 14.68 -14 14 C-16 11 -16 11 -15.9375 8.125 C-13.45678601 -0.14404664 -7.76879494 -1.34998732 0 0 Z M-13 6 C-13.83356413 8.54412036 -13.83356413 8.54412036 -13 11 C-10.13896577 13.24243223 -8.65923696 14 -5 14 C-5.18175781 14.56509277 -5.36351563 15.13018555 -5.55078125 15.71240234 C-6.37017494 18.26565409 -7.1851383 20.82029847 -8 23.375 C-8.42925781 24.70917969 -8.42925781 24.70917969 -8.8671875 26.0703125 C-9.13789062 26.92109375 -9.40859375 27.771875 -9.6875 28.6484375 C-9.93886719 29.43395996 -10.19023438 30.21948242 -10.44921875 31.02880859 C-11.0897026 32.97992105 -11.0897026 32.97992105 -11 35 C-6.38 35 -1.76 35 3 35 C2.71125 33.66324219 2.4225 32.32648437 2.125 30.94921875 C1.7498402 29.19534667 1.37484896 27.44143854 1 25.6875 C0.80921875 24.80642578 0.6184375 23.92535156 0.421875 23.01757812 C0.24140625 22.17001953 0.0609375 21.32246094 -0.125 20.44921875 C-0.29257813 19.66893311 -0.46015625 18.88864746 -0.6328125 18.0847168 C-1 16 -1 16 -1 13 C-0.319375 12.38125 0.36125 11.7625 1.0625 11.125 C3.30625904 9.15575928 3.30625904 9.15575928 2.9375 6.375 C2.13344454 3.67710239 2.13344454 3.67710239 -1 2 C-6.38566202 1.40159311 -9.32585597 1.88050517 -13 6 Z M-68 41 C-68.33 41.99 -68.66 42.98 -69 44 C-67.21653709 47.03188696 -66.40424844 47.86525052 -63 49 C-63.0721875 49.82242188 -63.144375 50.64484375 -63.21875 51.4921875 C-63.78956392 58.35781052 -64.1028127 65.1115493 -64 72 C-57.565 71.505 -57.565 71.505 -51 71 C-51 67.7 -51 64.4 -51 61 C-52.65 61 -54.3 61 -56 61 C-60.02436747 53.0721688 -60.02436747 53.0721688 -59.9375 49.25 C-59 47 -59 47 -57.375 44.4375 C-55.76311221 42.13494974 -55.76311221 42.13494974 -56.25 39.75 C-56.8684658 38.00773731 -56.8684658 38.00773731 -58 37 C-62.64387617 36.3550172 -64.70777364 37.79922437 -68 41 Z M50 39 C49.41345673 42.6170168 49.84207914 43.77792378 52 46.8125 C52.66 47.534375 53.32 48.25625 54 49 C56.67857172 48.63803085 58.60980914 48.26012724 60.875 46.75 C62.23405175 44.99602692 62.23405175 44.99602692 61.9375 42.5 C60.79429669 39.45145784 59.86678407 38.51302492 57 37 C53.02088006 36.5162748 53.02088006 36.5162748 50 39 Z M54 51 C53.32880451 52.4562545 52.66318193 53.91507867 52 55.375 C51.62875 56.18710938 51.2575 56.99921875 50.875 57.8359375 C49.87504987 59.91998433 49.87504987 59.91998433 50 62 C48.35 62 46.7 62 45 62 C45 64.97 45 67.94 45 71 C49.0527516 71.98248524 52.83861737 72.08159574 57 72 C57.86688859 69.10089716 58.0458562 66.88547169 57.66015625 63.890625 C57.56669922 63.13652344 57.47324219 62.38242188 57.37695312 61.60546875 C57.27318359 60.82816406 57.16941406 60.05085938 57.0625 59.25 C56.96259766 58.45722656 56.86269531 57.66445312 56.75976562 56.84765625 C56.51307129 54.89759629 56.2574122 52.94867414 56 51 C55.34 51 54.68 51 54 51 Z " fill="#B086A7" transform="translate(127,13)"/>
<path d="M0 0 C3.125 1.5625 3.125 1.5625 5 4 C5.5 7.5625 5.5 7.5625 5 11 C4.49082031 11.4846875 3.98164063 11.969375 3.45703125 12.46875 C2.73580078 13.22671875 2.73580078 13.22671875 2 14 C2.33708501 21.07878517 3.83522745 28.0113647 5 35 C17.21 35 29.42 35 42 35 C44.25 47.375 44.25 47.375 44.625 52.6875 C44.73714844 54.20923828 44.73714844 54.20923828 44.8515625 55.76171875 C44.90054688 56.50035156 44.94953125 57.23898438 45 58 C46.485 58.495 46.485 58.495 48 59 C50.26809625 54.68286403 50.26809625 54.68286403 50.875 50 C50.07188498 48.16430852 49.19547063 46.36114388 48.3125 44.5625 C47 41 47 41 47.75 38.125 C49 36 49 36 50 35 C54.55135866 34.53714997 57.71394489 34.30654103 61.5 37.0625 C64 40 64 40 64.5625 43.625 C64 47 64 47 62.6875 48.9375 C61 50 61 50 58 50 C58.15597656 50.97839844 58.31195313 51.95679688 58.47265625 52.96484375 C59.56339316 60.17419166 60.27230144 66.74788178 59 74 C57.22925083 74.02705729 55.45838289 74.04642195 53.6875 74.0625 C52.70136719 74.07410156 51.71523437 74.08570312 50.69921875 74.09765625 C48 74 48 74 45 73 C45.01160156 74.31355469 45.02320313 75.62710938 45.03515625 76.98046875 C45.04453828 78.71614441 45.05363804 80.45182161 45.0625 82.1875 C45.07087891 83.05181641 45.07925781 83.91613281 45.08789062 84.80664062 C45.10396812 89.00286769 45.07559038 92.90936886 44 97 C37.86581065 98.02379878 31.77155849 98.31607673 25.5625 98.5625 C24.54478516 98.60568359 23.52707031 98.64886719 22.47851562 98.69335938 C19.98578972 98.79868582 17.49297662 98.90081672 15 99 C15.33 99.99 15.66 100.98 16 102 C16.12781786 104.67394964 16.04391871 107.32095857 16 110 C14 106.25 14 106.25 14 104 C2.78 104 -8.44 104 -20 104 C-20 106.97 -20 109.94 -20 113 C-20.33 113 -20.66 113 -21 113 C-22.10339665 108.5864134 -22.03705271 104.52043044 -22 100 C-23.12277344 100.01160156 -24.24554688 100.02320312 -25.40234375 100.03515625 C-33.01306916 100.08951251 -40.4500307 100.09817735 -48 99 C-50.13031092 90.39602581 -50.58440013 81.8150919 -51 73 C-51.55300781 73.16242188 -52.10601562 73.32484375 -52.67578125 73.4921875 C-55.2417004 74.05280849 -57.56299677 74.13275333 -60.1875 74.125 C-61.06792969 74.12757812 -61.94835937 74.13015625 -62.85546875 74.1328125 C-65 74 -65 74 -66 73 C-66.37395662 65.60885747 -65.99306552 58.32385819 -65 51 C-66.2065625 50.4740625 -66.2065625 50.4740625 -67.4375 49.9375 C-70 48 -70 48 -71.0625 44.625 C-70.98768176 40.28554185 -70.06407081 38.97652593 -67 36 C-63.81295882 34.40647941 -60.46825691 34.6170023 -57 35 C-55 36.125 -55 36.125 -54 38 C-53.5332488 41.57842586 -53.59771364 43.37243328 -55.5625 46.4375 C-58.02287556 50.82338687 -56.29854689 55.36233253 -55 60 C-53.02 59.505 -53.02 59.505 -51 59 C-51.01160156 58.07058594 -51.02320312 57.14117187 -51.03515625 56.18359375 C-51.13154173 42.97878359 -51.13154173 42.97878359 -50 38 C-47.13231454 35.13231454 -44.21347695 35.64651855 -40.3671875 35.5859375 C-39.61535187 35.56657135 -38.86351624 35.5472052 -38.08889771 35.5272522 C-35.68438101 35.46740853 -33.27981656 35.42105274 -30.875 35.375 C-29.24607272 35.33682454 -27.61716572 35.29777307 -25.98828125 35.2578125 C-21.99229223 35.1600513 -17.99652266 35.08052379 -14 35 C-12.02 28.73 -10.04 22.46 -8 16 C-9.98 15.34 -11.96 14.68 -14 14 C-16 11 -16 11 -15.9375 8.125 C-13.45678601 -0.14404664 -7.76879494 -1.34998732 0 0 Z M-13 6 C-13.83356413 8.54412036 -13.83356413 8.54412036 -13 11 C-10.13896577 13.24243223 -8.65923696 14 -5 14 C-5.18175781 14.56509277 -5.36351563 15.13018555 -5.55078125 15.71240234 C-6.37017494 18.26565409 -7.1851383 20.82029847 -8 23.375 C-8.42925781 24.70917969 -8.42925781 24.70917969 -8.8671875 26.0703125 C-9.13789062 26.92109375 -9.40859375 27.771875 -9.6875 28.6484375 C-9.93886719 29.43395996 -10.19023438 30.21948242 -10.44921875 31.02880859 C-11.0897026 32.97992105 -11.0897026 32.97992105 -11 35 C-6.38 35 -1.76 35 3 35 C2.71125 33.66324219 2.4225 32.32648437 2.125 30.94921875 C1.7498402 29.19534667 1.37484896 27.44143854 1 25.6875 C0.80921875 24.80642578 0.6184375 23.92535156 0.421875 23.01757812 C0.24140625 22.17001953 0.0609375 21.32246094 -0.125 20.44921875 C-0.29257813 19.66893311 -0.46015625 18.88864746 -0.6328125 18.0847168 C-1 16 -1 16 -1 13 C-0.319375 12.38125 0.36125 11.7625 1.0625 11.125 C3.30625904 9.15575928 3.30625904 9.15575928 2.9375 6.375 C2.13344454 3.67710239 2.13344454 3.67710239 -1 2 C-6.38566202 1.40159311 -9.32585597 1.88050517 -13 6 Z M-68 41 C-68.33 41.99 -68.66 42.98 -69 44 C-67.21653709 47.03188696 -66.40424844 47.86525052 -63 49 C-63.0721875 49.82242188 -63.144375 50.64484375 -63.21875 51.4921875 C-63.78956392 58.35781052 -64.1028127 65.1115493 -64 72 C-57.565 71.505 -57.565 71.505 -51 71 C-51 67.7 -51 64.4 -51 61 C-52.65 61 -54.3 61 -56 61 C-60.02436747 53.0721688 -60.02436747 53.0721688 -59.9375 49.25 C-59 47 -59 47 -57.375 44.4375 C-55.76311221 42.13494974 -55.76311221 42.13494974 -56.25 39.75 C-56.8684658 38.00773731 -56.8684658 38.00773731 -58 37 C-62.64387617 36.3550172 -64.70777364 37.79922437 -68 41 Z M50 39 C49.41345673 42.6170168 49.84207914 43.77792378 52 46.8125 C52.66 47.534375 53.32 48.25625 54 49 C56.67857172 48.63803085 58.60980914 48.26012724 60.875 46.75 C62.23405175 44.99602692 62.23405175 44.99602692 61.9375 42.5 C60.79429669 39.45145784 59.86678407 38.51302492 57 37 C53.02088006 36.5162748 53.02088006 36.5162748 50 39 Z M54 51 C53.32880451 52.4562545 52.66318193 53.91507867 52 55.375 C51.62875 56.18710938 51.2575 56.99921875 50.875 57.8359375 C49.87504987 59.91998433 49.87504987 59.91998433 50 62 C48.35 62 46.7 62 45 62 C45 64.97 45 67.94 45 71 C49.0527516 71.98248524 52.83861737 72.08159574 57 72 C57.86688859 69.10089716 58.0458562 66.88547169 57.66015625 63.890625 C57.56669922 63.13652344 57.47324219 62.38242188 57.37695312 61.60546875 C57.27318359 60.82816406 57.16941406 60.05085938 57.0625 59.25 C56.96259766 58.45722656 56.86269531 57.66445312 56.75976562 56.84765625 C56.51307129 54.89759629 56.2574122 52.94867414 56 51 C55.34 51 54.68 51 54 51 Z " fill="#AD83A4" transform="translate(127,13)"/>
<path d="M0 0 C0.66 0.66 1.32 1.32 2 2 C4.50336895 2.47961741 6.9807126 2.88136581 9.5 3.25 C20.05014665 5.02582555 28.2204398 9.57942156 35 18 C38.76949973 23.39743611 41.59838144 28.55255461 43 35 C44.8871875 34.8453125 44.8871875 34.8453125 46.8125 34.6875 C49.0390625 34.6796875 49.0390625 34.6796875 51 35 C52.6875 37.3125 52.6875 37.3125 54 40 C55.64142963 41.0409066 57.30712215 42.04504326 59 43 C61.34549674 46.51824511 61.57991403 47.85775694 61 52 C58.6875 54.875 58.6875 54.875 56 57 C55.01 57 54.02 57 53 57 C52.7215625 57.9590625 52.7215625 57.9590625 52.4375 58.9375 C51 61 51 61 47.8125 61.8125 C44.00833627 61.99959002 40.75279842 61.59254712 37 61 C35.66598918 61.0950978 34.33261572 61.19952294 33 61.3125 C28.71451345 61.36262265 26.37909109 59.72079798 23.36328125 56.78125 C21.09297007 53.81488353 20.73208289 51.68386027 21 48 C23.4375 45.0625 23.4375 45.0625 26 43 C24.77699907 37.00729545 22.6654963 33.03450704 18 29 C13.70192821 26.16717996 9.91321485 23.92780321 4.6875 24.125 C3.800625 24.41375 2.91375 24.7025 2 25 C-2.53539823 26.10619469 -2.53539823 26.10619469 -5.1875 25.5 C-8.14442775 24.97432396 -9.72348348 25.34619569 -12.625 25.9375 C-17.64484967 26.57913492 -20.03409617 25.07427355 -24.0625 22.125 C-28.23021583 18.76978417 -28.23021583 18.76978417 -30 17 C-30.39488214 12.89322576 -30.3856935 10.64741409 -28.25 7.0625 C-26 5 -26 5 -22 5 C-21.855625 4.195625 -21.71125 3.39125 -21.5625 2.5625 C-21 0 -21 0 -20 -1 C-17.21697443 -1.07252184 -14.44719465 -0.99624685 -11.6640625 -0.9375 C-2.83165573 -1.14471189 -2.83165573 -1.14471189 0 0 Z " fill="#9B758E" transform="translate(184,9)"/>
<path d="M0 0 C1.95979369 2.93969054 2.48320069 4.55022586 3.125 7.9375 C3.29257812 8.79214844 3.46015625 9.64679688 3.6328125 10.52734375 C4 13 4 13 4 17 C4.66 16.67 5.32 16.34 6 16 C7.53668865 15.77532169 9.07968054 15.59203195 10.625 15.4375 C12.06875 15.293125 13.5125 15.14875 15 15 C15.99 11.37 16.98 7.74 18 4 C21 5 21 5 22.6875 8 C24.33172244 12.27321981 24.94192027 16.48557132 24 21 C21.5625 23.875 21.5625 23.875 19 26 C17.42529633 30.72411102 19.14300524 34.50771121 21 39 C24.09732278 44.39993775 28.24999004 47.26968297 34.0546875 49.35546875 C39.65686403 50.58140924 45.30260868 50.29554191 51 50 C51.33 50.66 51.66 51.32 52 52 C49.69 52 47.38 52 45 52 C45 58.6 45 65.2 45 72 C47.64 72 50.28 72 53 72 C45.40182678 76.35168103 35.11231152 73.92104806 27 72 C17.81475044 69.12147297 10.71935441 63.3202742 5.9609375 54.953125 C2.08422948 47.07363716 0.86186528 36.55253887 3 28 C1.3603125 27.690625 1.3603125 27.690625 -0.3125 27.375 C-4 26 -4 26 -6 23.375 C-8.22034284 15.88134291 -5.46922075 9.63733932 -2 3 C-1.34 2.01 -0.68 1.02 0 0 Z " fill="#493E4A" transform="translate(34,87)"/>
<path d="M0 0 C-0.48077476 10.45052509 -1.3127774 20.66371396 -3 31 C-6.95831733 31.02940464 -10.91660597 31.04693328 -14.875 31.0625 C-15.98359375 31.07087891 -17.0921875 31.07925781 -18.234375 31.08789062 C-24.89051489 31.10746751 -31.3939117 30.82879778 -38 30 C-38.8382125 26.06352226 -39.66973255 22.12566049 -40.5 18.1875 C-40.73847656 17.06794922 -40.97695312 15.94839844 -41.22265625 14.79492188 C-41.44824219 13.72177734 -41.67382812 12.64863281 -41.90625 11.54296875 C-42.11572266 10.55321045 -42.32519531 9.56345215 -42.54101562 8.54370117 C-43 6 -43 6 -43 3 C-38.21587267 1.40529089 -33.25914141 1.33041672 -28.25 0.9375 C-27.12795166 0.84807129 -26.00590332 0.75864258 -24.84985352 0.66650391 C-16.54189493 0.03878882 -8.32828526 -0.24375469 0 0 Z " fill="#B186A8" transform="translate(149,145)"/>
<path d="M0 0 C4.95 0 9.9 0 15 0 C14.979375 1.52625 14.95875 3.0525 14.9375 4.625 C14.85875382 10.39855655 14.85875382 10.39855655 16 16 C18.36280019 17.73131209 18.36280019 17.73131209 20.1796875 18.7421875 C25.45146391 22.38491712 30.15139541 28.29351198 33 34 C32.67 34.99 32.34 35.98 32 37 C20.12 36.67 8.24 36.34 -4 36 C-4 30.21138031 -3.81967691 28.02071439 -2 23 C-0.41715637 15.30073594 0.23425746 7.84762503 0 0 Z " fill="#E17C8F" transform="translate(141,212)"/>
<path d="M0 0 C1.47398779 0.20753748 2.95351285 0.38383662 4.4375 0.5 C4.7675 0.17 5.0975 -0.16 5.4375 -0.5 C9.21055851 -0.92875665 10.98826161 -0.77952611 14.25 1.25 C16.52759473 3.59266886 16.73235414 4.47794633 17.4375 7.5 C19.37080603 8.59166275 19.37080603 8.59166275 21.4375 9.5 C23.4375 12.5 23.4375 12.5 23.3125 15.375 C22.14701958 19.53743008 20.3258833 22.34119655 16.59863281 24.62841797 C14.12458784 25.62619706 12.3325706 25.72942398 9.671875 25.6953125 C8.78242187 25.68886719 7.89296875 25.68242187 6.9765625 25.67578125 C6.05617188 25.65902344 5.13578125 25.64226562 4.1875 25.625 C3.25164063 25.61597656 2.31578125 25.60695312 1.3515625 25.59765625 C-0.95338657 25.57413636 -3.2578116 25.54126853 -5.5625 25.5 C-5.84222656 24.84902344 -6.12195312 24.19804687 -6.41015625 23.52734375 C-6.79042969 22.85832031 -7.17070313 22.18929687 -7.5625 21.5 C-8.366875 21.355625 -9.17125 21.21125 -10 21.0625 C-12.5625 20.5 -12.5625 20.5 -14.4375 18.3125 C-15.84253423 14.79991443 -15.7078424 13.08873952 -14.5625 9.5 C-12.6875 7.125 -12.6875 7.125 -10.5625 5.5 C-9.5725 5.5 -8.5825 5.5 -7.5625 5.5 C-7.43875 4.695625 -7.315 3.89125 -7.1875 3.0625 C-6.98125 2.216875 -6.775 1.37125 -6.5625 0.5 C-4.04034162 -0.76107919 -2.76566351 -0.39065552 0 0 Z " fill="#F7F6F7" transform="translate(58.5625,194.5)"/>
<path d="M0 0 C5.43877443 0.35295881 8.05388809 2.38633938 11.625 6.25 C12.0890625 6.72824219 12.553125 7.20648438 13.03125 7.69921875 C15.20944459 9.96970972 17.21088299 12.27792896 19.11328125 14.78515625 C21.68861906 17.8083789 24.20486051 18.10296703 28 19 C28.99 19.66 29.98 20.32 31 21 C31 21.66 31 22.32 31 23 C30.01 23.33 29.02 23.66 28 24 C26.78130071 26.50447516 26.78130071 26.50447516 26 29 C23.23723823 28.47731534 20.6739124 27.89130413 18 27 C17.7525 27.804375 17.505 28.60875 17.25 29.4375 C16 32 16 32 14.125 33 C11.25529451 33 10.09536549 31.87086204 8 30 C7.01 31.98 6.02 33.96 5 36 C2.03824877 35.38722388 0.61941217 34.74627478 -2 33 C-5.14221967 33.31506627 -5.14221967 33.31506627 -8 34 C-6.87548273 31.0280615 -5.77706209 28.66559313 -4 26 C-3.34 26 -2.68 26 -2 26 C-2.01047363 25.35450195 -2.02094727 24.70900391 -2.03173828 24.04394531 C-2.07337272 21.11266998 -2.09934975 18.18145696 -2.125 15.25 C-2.14175781 14.23421875 -2.15851563 13.2184375 -2.17578125 12.171875 C-2.18222656 11.1921875 -2.18867188 10.2125 -2.1953125 9.203125 C-2.20578613 8.30239258 -2.21625977 7.40166016 -2.22705078 6.47363281 C-1.98721676 3.86073144 -1.32312064 2.24335334 0 0 Z " fill="#5FA09C" transform="translate(199,193)"/>
<path d="M0 0 C1 1 1 1 1.06591797 3.4050293 C1.02942139 4.97377808 1.02942139 4.97377808 0.9921875 6.57421875 C0.97542969 7.71697266 0.95867188 8.85972656 0.94140625 10.03710938 C0.89748777 12.45133422 0.8455358 14.86542763 0.78515625 17.27929688 C0.70977479 23.38862193 0.70536257 27.66130742 4 33 C4 34.32 4 35.64 4 37 C0.37 37 -3.26 37 -7 37 C-7 35.02 -7 33.04 -7 31 C-7.95712891 31.12568359 -7.95712891 31.12568359 -8.93359375 31.25390625 C-10.17302734 31.40666016 -10.17302734 31.40666016 -11.4375 31.5625 C-12.26121094 31.66691406 -13.08492187 31.77132812 -13.93359375 31.87890625 C-14.61550781 31.91886719 -15.29742187 31.95882812 -16 32 C-17 31 -17 31 -17.0625 27.9375 C-17.0315625 26.4834375 -17.0315625 26.4834375 -17 25 C-17.556875 25.350625 -18.11375 25.70125 -18.6875 26.0625 C-21.53886783 27.21845993 -23.08517222 26.80967438 -26 26 C-26 24.02 -26 22.04 -26 20 C-28.475 19.01 -28.475 19.01 -31 18 C-31 17.34 -31 16.68 -31 16 C-30.38253906 15.96003906 -29.76507812 15.92007813 -29.12890625 15.87890625 C-22.03784532 15.00466586 -18.85274438 12.46519226 -14.09765625 7.265625 C-10.2419762 3.10120335 -6.07710957 -1.0724311 0 0 Z " fill="#60A6A1" transform="translate(31,146)"/>
<path d="M0 0 C0.1546875 1.5778125 0.1546875 1.5778125 0.3125 3.1875 C0.98825243 6.93485437 1.96620989 8.86457358 4 12 C5.55228269 16.09238163 5 19.29151912 5 24 C-7.21 24.33 -19.42 24.66 -32 25 C-30.96437692 20.8575077 -29.66889388 18.79094482 -27.1875 15.375 C-26.50042969 14.41335937 -25.81335938 13.45171875 -25.10546875 12.4609375 C-23.11700008 10.13675334 -21.81584905 9.07571761 -19 8 C-19 5.69 -19 3.38 -19 1 C-12.61773055 0.17648136 -6.43255401 -0.12086218 0 0 Z " fill="#E07C8E" transform="translate(125,224)"/>
<path d="M0 0 C1.49821059 3.37097383 2 5.20442119 2 9 C1.67 9.33 1.34 9.66 1 10 C1.66 10 2.32 10 3 10 C4.4606285 12.64738916 5 13.89448334 5 17 C5.53625 17.2475 6.0725 17.495 6.625 17.75 C9.56424252 19.29696975 12.25754408 21.13014369 15 23 C14.59060025 29.76215448 13.43046191 35.67162748 11 42 C6.87054925 41.45819263 4.49583086 40.20641582 1.25 37.625 C0.08210938 36.71621094 0.08210938 36.71621094 -1.109375 35.7890625 C-3 34 -3 34 -4 31 C-2.92745123 28.48301368 -1.45196548 26.33194455 0 24 C-0.61875 24.99 -1.2375 25.98 -1.875 27 C-2.57625 27.99 -3.2775 28.98 -4 30 C-4.66 30 -5.32 30 -6 30 C-10.69580731 20.56645852 -10.69580731 20.56645852 -10 15 C-9.67 14.67 -9.34 14.34 -9 14 C-9.66 13.67 -10.32 13.34 -11 13 C-11.02687279 11.18757948 -11.04633715 9.37504767 -11.0625 7.5625 C-11.07410156 6.55316406 -11.08570313 5.54382813 -11.09765625 4.50390625 C-11 2 -11 2 -10 1 C-6.62658866 0.43776478 -3.42229689 0 0 0 Z " fill="#EBEAEB" transform="translate(49,114)"/>
<path d="M0 0 C3.80909895 0.32417863 5.78372163 0.85581442 9 3 C9 2.34 9 1.68 9 1 C11.6875 0.1875 11.6875 0.1875 15 0 C17.875 2.25 17.875 2.25 20 5 C20 5.99 20 6.98 20 8 C19.360625 8.2475 18.72125 8.495 18.0625 8.75 C15.81258459 9.81562433 15.81258459 9.81562433 15.25 12.125 C15.1675 12.74375 15.085 13.3625 15 14 C16.65 13.67 18.3 13.34 20 13 C20.33 11.68 20.66 10.36 21 9 C22.9375 9.6875 22.9375 9.6875 25 11 C25.9375 13.3125 25.9375 13.3125 26 16 C24.23941175 20.10803926 22.10803926 22.23941175 18 24 C15.1875 23.6875 15.1875 23.6875 13 23 C13 20.69 13 18.38 13 16 C12.34 16 11.68 16 11 16 C10.67 18.31 10.34 20.62 10 23 C6.04340734 24.31886422 3.17660573 24.26518132 -1 24 C-1.66 23.01 -2.32 22.02 -3 21 C-4.64821244 19.96986723 -6.31503702 18.96885372 -8 18 C-10 16 -10 16 -10.375 13.125 C-10 10 -10 10 -8.1875 7.625 C-6 6 -6 6 -3 6 C-2.814375 5.071875 -2.814375 5.071875 -2.625 4.125 C-2 2 -2 2 0 0 Z " fill="#F6F6F6" transform="translate(166,9)"/>
<path d="M0 0 C3 4 3 4 4 6 C4.99580078 5.89558594 4.99580078 5.89558594 6.01171875 5.7890625 C13.05427887 5.35725589 13.05427887 5.35725589 15.70703125 7.16015625 C19.85170695 12.05613268 21.21214761 17.05090537 21.625 23.3125 C21.69976562 24.38113281 21.77453125 25.44976562 21.8515625 26.55078125 C21.90054688 27.35902344 21.94953125 28.16726562 22 29 C18.54798361 27.52278578 16.35038064 25.56205999 13.75 22.875 C13.04359375 22.15054688 12.3371875 21.42609375 11.609375 20.6796875 C11.07828125 20.12539062 10.5471875 19.57109375 10 19 C6.93224489 20.42431487 4.78959901 21.90780074 2 24 C2.66 27.96 3.32 31.92 4 36 C-1.64657878 34.87068424 -1.64657878 34.87068424 -4.75 32.0625 C-5.34296875 31.53785156 -5.9359375 31.01320312 -6.546875 30.47265625 C-9.32765911 27.65449601 -9.32198976 24.98346244 -9.30078125 21.109375 C-8.80935205 17.66298838 -7.15007215 15.68759019 -5 13 C-5.99 11.35 -6.98 9.7 -8 8 C-5.36 5.36 -2.72 2.72 0 0 Z " fill="#E27C8F" transform="translate(200,141)"/>
<path d="M0 0 C-0.33 2.31 -0.66 4.62 -1 7 C0.32 7 1.64 7 3 7 C2.67 5.02 2.34 3.04 2 1 C5 -1 5 -1 7.6875 -0.625 C8.450625 -0.41875 9.21375 -0.2125 10 0 C10.33 1.65 10.66 3.3 11 5 C12.423125 5.1546875 12.423125 5.1546875 13.875 5.3125 C17 6 17 6 19 9 C19.54404145 14.22279793 19.54404145 14.22279793 17.6875 16.875 C16 18 16 18 13 18 C12.71125 18.639375 12.4225 19.27875 12.125 19.9375 C11 22 11 22 9 23 C7.125 23.1328125 7.125 23.1328125 5 23.125 C3.948125 23.12886719 3.948125 23.12886719 2.875 23.1328125 C1 23 1 23 -1 22 C-1.40729228 19.67843403 -1.74438677 17.3431213 -2 15 C-2.66 15 -3.32 15 -4 15 C-4 17.31 -4 19.62 -4 22 C-6.125 22.75 -6.125 22.75 -9 23 C-12.07680225 21.37110469 -14.31153389 19.89799927 -16.4375 17.125 C-17.21024501 14.20574109 -16.66144071 11.91033912 -16 9 C-14.68 8.67 -13.36 8.34 -12 8 C-11.67 9.32 -11.34 10.64 -11 12 C-9.35 12.33 -7.7 12.66 -6 13 C-6.19471111 11.05000871 -6.19471111 11.05000871 -7 9 C-8.9837767 7.71563266 -8.9837767 7.71563266 -11 7 C-10.67694236 4.01171686 -10.34810879 2.38678755 -8.3125 0.125 C-5.21105827 -1.38380949 -3.27921467 -0.81980367 0 0 Z " fill="#F7F7F7" transform="translate(224,46)"/>
<path d="M0 0 C0.33 0 0.66 0 1 0 C1 2.64 1 5.28 1 8 C7.27 7.67 13.54 7.34 20 7 C20 4.69 20 2.38 20 0 C21.92850699 3.28836423 22.36022054 6.01413739 22.6328125 9.796875 C22.75849609 11.48296875 22.75849609 11.48296875 22.88671875 13.203125 C22.96535156 14.37359375 23.04398438 15.5440625 23.125 16.75 C23.21136719 17.905 23.29773438 19.06 23.38671875 20.25 C23.81332811 26.18190163 24.10253 32.05325983 24 38 C23.34 37.67 22.68 37.34 22 37 C22 34.69 22 32.38 22 30 C21.38253906 30.0721875 20.76507813 30.144375 20.12890625 30.21875 C14.37891613 30.8488859 8.78353441 31.09328281 3 31 C3 33.31 3 35.62 3 38 C2.67 38 2.34 38 2 38 C1.65871535 33.91729158 1.32847613 29.8337573 1 25.75 C0.85691406 24.04070312 0.85691406 24.04070312 0.7109375 22.296875 C0.11826051 14.84607859 -0.12268329 7.47345704 0 0 Z " fill="#433744" transform="translate(103,194)"/>
<path d="M0 0 C1.95979369 2.93969054 2.48320069 4.55022586 3.125 7.9375 C3.29257812 8.79214844 3.46015625 9.64679688 3.6328125 10.52734375 C4 13 4 13 4 17 C4.66 16.67 5.32 16.34 6 16 C7.53668865 15.77532169 9.07968054 15.59203195 10.625 15.4375 C12.06875 15.293125 13.5125 15.14875 15 15 C15.99 11.37 16.98 7.74 18 4 C21 5 21 5 22.6875 8 C24.33623648 12.2849515 24.91921947 16.47199299 24 21 C21.75 23.875 21.75 23.875 19 26 C18.236875 26.598125 17.47375 27.19625 16.6875 27.8125 C16.130625 28.204375 15.57375 28.59625 15 29 C15 28.34 15 27.68 15 27 C14.31035156 27.19078125 13.62070312 27.3815625 12.91015625 27.578125 C6.68015227 29.04802992 2.4807303 29.34539324 -3.24609375 26.26171875 C-5 25 -5 25 -6.625 22.75 C-7.78122716 14.27100079 -4.63177659 6.94766488 0 0 Z " fill="#E27C8F" transform="translate(34,87)"/>
<path d="M0 0 C0.33 8.58 0.66 17.16 1 26 C-3.95 26 -8.9 26 -14 26 C-18.40774487 9.29157175 -18.40774487 9.29157175 -19 1 C-17.52154276 0.82715323 -16.04216801 0.6621554 -14.5625 0.5 C-13.32693359 0.36078125 -13.32693359 0.36078125 -12.06640625 0.21875 C-8.05380714 -0.06749911 -4.02279631 0 0 0 Z " fill="#B187A8" transform="translate(127,148)"/>
<path d="M0 0 C2.36597311 0.95043364 4.68513882 2.01589253 6.9921875 3.1015625 C4.6821875 7.7215625 2.3721875 12.3415625 -0.0078125 17.1015625 C-2.64453125 16.58072917 -5.28125 16.05989583 -7.91796875 15.5390625 C-11.64284656 14.9380022 -11.64284656 14.9380022 -18.0078125 15.1015625 C-18.3378125 10.4815625 -18.6678125 5.8615625 -19.0078125 1.1015625 C-12.90115211 -1.95176769 -6.55189222 -1.95705872 0 0 Z " fill="#F9F8F9" transform="translate(183.0078125,126.8984375)"/>
<path d="M0 0 C4.59685106 4.77031713 7.75349992 9.78908802 10 16 C6.26360784 14.75453595 5.81243487 13.36595047 4 10 C1.69 12.31 -0.62 14.62 -3 17 C-2.01 18.98 -1.02 20.96 0 23 C-3.73020806 21.27197488 -6.69921681 18.98471824 -9.90234375 16.4375 C-14.55334297 13.25022307 -18.73407666 12.68780879 -24.3125 12.375 C-25.56675781 12.30023438 -26.82101563 12.22546875 -28.11328125 12.1484375 C-29.06589844 12.09945312 -30.01851562 12.05046875 -31 12 C-28.35261084 10.5393715 -27.10551666 10 -24 10 C-24 8.02 -24 6.04 -24 4 C-23.67 4 -23.34 4 -23 4 C-23 5.98 -23 7.96 -23 10 C-19.7 10.33 -16.4 10.66 -13 11 C-11.02 7.04 -9.04 3.08 -7 -1 C-14.22227152 -4.39770311 -14.22227152 -4.39770311 -22 -6 C-22 -3.36 -22 -0.72 -22 2 C-22.33 2 -22.66 2 -23 2 C-23 -0.64 -23 -3.28 -23 -6 C-27.455 -5.505 -27.455 -5.505 -32 -5 C-24.0488281 -12.9511719 -7.23272966 -5.88128536 0 0 Z " fill="#4B404D" transform="translate(196,132)"/>
<path d="M0 0 C3.61391202 2.92188632 5.74312565 5.11625474 6.375 9.75 C5.8528401 14.2753858 4.15770622 15.7671103 1 19 C-1.86608129 20.43304064 -3.81300783 20.30644155 -7 20 C-12.57894737 16.84210526 -12.57894737 16.84210526 -14 14 C-14.5811138 6.91041162 -14.5811138 6.91041162 -12.125 3.0625 C-8.52738076 -0.42930691 -4.87276617 -0.8588017 0 0 Z " fill="#F8F6F0" transform="translate(154,65)"/>
<path d="M0 0 C3.06818718 1.53409359 4.52410348 2.57528481 5.625 5.87109375 C6.27370292 9.44571716 6.21706992 11.50073918 4.75 14.875 C2.74549054 17.3090472 1.08023764 18.80782289 -2.0859375 19.37109375 C-6.26823838 19.4924233 -8.44544699 19.35083966 -12.0625 17.0625 C-14.669717 12.94141507 -15.03945854 9.75058323 -14 5 C-10.46188977 -0.59249681 -6.14758309 -1.16937722 0 0 Z " fill="#F9F7F1" transform="translate(108,66)"/>
<path d="M0 0 C12.26871644 0.42160538 20.65989941 2.84328999 29.66796875 11.42578125 C34.57071346 16.83768873 38.6358176 23.05960315 41 30 C40.625 32.3125 40.625 32.3125 40 34 C36.79362931 33.06615803 35.31505038 32.47732507 33.4453125 29.64453125 C33.00960937 28.70996094 32.57390625 27.77539062 32.125 26.8125 C26.10693988 15.17150491 16.98034222 10.25322277 4.75 6.125 C3.5125 5.75375 2.275 5.3825 1 5 C0.67 3.35 0.34 1.7 0 0 Z " fill="#E07A8D" transform="translate(186,12)"/>
<path d="M0 0 C2.42869909 3.64304864 2.25675675 6.30722339 2.1953125 10.51171875 C2.1924826 11.23994339 2.18965271 11.96816803 2.18673706 12.71846008 C2.17555257 15.04164137 2.15045166 17.36443547 2.125 19.6875 C2.11496794 21.2636663 2.10584248 22.83983865 2.09765625 24.41601562 C2.07561896 28.27749267 2.04110141 32.13868071 2 36 C1.34 35.67 0.68 35.34 0 35 C0 33.02 0 31.04 0 29 C-2.31 29 -4.62 29 -7 29 C-7 28.67 -7 28.34 -7 28 C-4.69 28 -2.38 28 0 28 C0 25.03 0 22.06 0 19 C-4.95 19 -9.9 19 -15 19 C-15 22.3 -15 25.6 -15 29 C-13.02 29 -11.04 29 -9 29 C-9 29.33 -9 29.66 -9 30 C-10.98 30 -12.96 30 -15 30 C-15.04898438 30.84304687 -15.09796875 31.68609375 -15.1484375 32.5546875 C-15.22320312 33.65039062 -15.29796875 34.74609375 -15.375 35.875 C-15.47941406 37.51082031 -15.47941406 37.51082031 -15.5859375 39.1796875 C-16 42 -16 42 -18 44 C-17.73745797 39.00100104 -17.47080181 34.00224423 -17.20043945 29.00366211 C-17.10915668 27.30547941 -17.01897073 25.60723736 -16.92993164 23.90893555 C-16.80127213 21.4586547 -16.66858422 19.00861901 -16.53515625 16.55859375 C-16.49656998 15.80726669 -16.4579837 15.05593964 -16.41822815 14.28184509 C-16.16967107 9.80265044 -15.69738991 5.43213 -15 1 C-14.67 1 -14.34 1 -14 1 C-14 3.31 -14 5.62 -14 8 C-9.38 8 -4.76 8 0 8 C0 5.36 0 2.72 0 0 Z " fill="#2C1F2E" transform="translate(156,193)"/>
<path d="M0 0 C6.31391253 2.65551579 10.63907903 8.66091708 14 14.4375 C15 17 15 17 15 19 C16.65614657 19.38218767 18.32457024 19.71395102 20 20 C20.33 19.67 20.66 19.34 21 19 C26.24837209 18.49209302 26.24837209 18.49209302 29 19 C30.6875 21.3125 30.6875 21.3125 32 24 C33.64142963 25.0409066 35.30712215 26.04504326 37 27 C39.34549674 30.51824511 39.57991403 31.85775694 39 36 C36.6875 38.875 36.6875 38.875 34 41 C33.01 41 32.02 41 31 41 C30.814375 41.639375 30.62875 42.27875 30.4375 42.9375 C29 45 29 45 25.8125 45.8125 C22.00833627 45.99959002 18.75279842 45.59254712 15 45 C13.66598918 45.0950978 12.33261572 45.19952294 11 45.3125 C6.71451345 45.36262265 4.37909109 43.72079798 1.36328125 40.78125 C-0.90702993 37.81488353 -1.26791711 35.68386027 -1 32 C1.3125 29.0625 1.3125 29.0625 4 27 C4.66 27 5.32 27 6 27 C6.33 25.68 6.66 24.36 7 23 C7.33 23.66 7.66 24.32 8 25 C7.67 25.99 7.34 26.98 7 28 C9.475 28.99 9.475 28.99 12 30 C12 31.32 12 32.64 12 34 C10.35 33.67 8.7 33.34 7 33 C6.67 31.68 6.34 30.36 6 29 C4.68 29.33 3.36 29.66 2 30 C1.74514478 35.33442005 1.74514478 35.33442005 4 40 C7.39415013 42.50095273 8.67409946 43 13 43 C13 40.69 13 38.38 13 36 C14.32 36 15.64 36 17 36 C17 38.31 17 40.62 17 43 C18.62490954 43.02698189 20.24994633 43.04638757 21.875 43.0625 C22.77992188 43.07410156 23.68484375 43.08570313 24.6171875 43.09765625 C27.0168585 43.16249257 27.0168585 43.16249257 29 42 C29.65772428 38.97065509 29.65772428 38.97065509 30 36 C30.33 36.99 30.66 37.98 31 39 C33.60943058 37.9354148 33.60943058 37.9354148 36 36 C36.54055017 32.75669901 36.6437339 30.93341416 34.75 28.1875 C33.05768396 26.86687259 33.05768396 26.86687259 30.9375 26.625 C30.298125 26.41875 29.65875 26.2125 29 26 C27.75 23.4375 27.75 23.4375 27 21 C25.02 21.33 23.04 21.66 21 22 C21.33 23.98 21.66 25.96 22 28 C20.02 28.99 20.02 28.99 18 30 C17.34 29.34 16.68 28.68 16 28 C16.3269756 25.38419521 16.82039068 23.35921863 18 21 C15.36 21 12.72 21 10 21 C10.99 20.01 11.98 19.02 13 18 C9.70303959 11.99784131 6.37832918 6.93028117 1.3203125 2.27734375 C0.88460937 1.85582031 0.44890625 1.43429688 0 1 C0 0.67 0 0.34 0 0 Z " fill="#302332" transform="translate(206,25)"/>
<path d="M0 0 C3.55225704 1.71435014 6.74021634 3.77742023 10 6 C9.59060025 12.76215448 8.43046191 18.67162748 6 25 C1.87054925 24.45819263 -0.50416914 23.20641582 -3.75 20.625 C-4.52859375 20.01914063 -5.3071875 19.41328125 -6.109375 18.7890625 C-8 17 -8 17 -9 14 C-7.60050651 11.49026115 -6.17371593 9.17830602 -4.5625 6.8125 C-4.12873047 6.15830078 -3.69496094 5.50410156 -3.24804688 4.83007812 C-2.17454017 3.21391967 -1.0884403 1.60613901 0 0 Z " fill="#FAFAFA" transform="translate(54,131)"/>
<path d="M0 0 C5.94 0.99 5.94 0.99 12 2 C12 8.27 12 14.54 12 21 C0.88392857 21.26785714 0.88392857 21.26785714 -4 19 C-3.37724549 12.39880225 -1.83272188 6.37468479 0 0 Z " fill="#FBFBFB" transform="translate(66,138)"/>
<path d="M0 0 C4.36857275 0.27901468 6.39172378 1.9771606 9.30078125 5.15820312 C9.77902344 5.70412109 10.25726563 6.25003906 10.75 6.8125 C11.24371094 7.34681641 11.73742187 7.88113281 12.24609375 8.43164062 C14.67520323 11.13693653 16.60593725 13.30118371 17 17 C14.58570231 17.84080019 12.16896007 18.67281402 9.75 19.5 C8.72712891 19.85771484 8.72712891 19.85771484 7.68359375 20.22265625 C4.23586997 21.39421287 1.68297096 22 -2 22 C-2.05401695 19.08308475 -2.09368066 16.16717276 -2.125 13.25 C-2.14175781 12.425 -2.15851563 11.6 -2.17578125 10.75 C-2.18222656 9.95078125 -2.18867188 9.1515625 -2.1953125 8.328125 C-2.20578613 7.5949707 -2.21625977 6.86181641 -2.22705078 6.10644531 C-1.96777544 3.70103924 -1.19225925 2.08748506 0 0 Z " fill="#E9E8E9" transform="translate(200,195)"/>
<path d="M0 0 C0.3690205 15.74487472 0.3690205 15.74487472 -2 23 C-8.16356805 21.3341708 -13.48259656 18.12194714 -19 15 C-17.55053895 11.66026243 -15.71827612 9.47695341 -13.125 6.9375 C-12.44695313 6.26589844 -11.76890625 5.59429687 -11.0703125 4.90234375 C-5.25823659 -0.43818638 -5.25823659 -0.43818638 0 0 Z " fill="#EBEAEB" transform="translate(31,148)"/>
<path d="M0 0 C1.47398779 0.20753748 2.95351285 0.38383662 4.4375 0.5 C4.7675 0.17 5.0975 -0.16 5.4375 -0.5 C9.21055851 -0.92875665 10.98826161 -0.77952611 14.25 1.25 C16.52759473 3.59266886 16.73235414 4.47794633 17.4375 7.5 C19.37080603 8.59166275 19.37080603 8.59166275 21.4375 9.5 C23.4375 12.5 23.4375 12.5 23.3125 15.375 C22.14701958 19.53743008 20.3258833 22.34119655 16.59863281 24.62841797 C14.12458784 25.62619706 12.3325706 25.72942398 9.671875 25.6953125 C8.78242187 25.68886719 7.89296875 25.68242187 6.9765625 25.67578125 C6.05617188 25.65902344 5.13578125 25.64226562 4.1875 25.625 C3.25164063 25.61597656 2.31578125 25.60695312 1.3515625 25.59765625 C-0.95338657 25.57413636 -3.2578116 25.54126853 -5.5625 25.5 C-5.84222656 24.84902344 -6.12195312 24.19804687 -6.41015625 23.52734375 C-6.79042969 22.85832031 -7.17070313 22.18929687 -7.5625 21.5 C-8.366875 21.355625 -9.17125 21.21125 -10 21.0625 C-12.5625 20.5 -12.5625 20.5 -14.4375 18.3125 C-15.84253423 14.79991443 -15.7078424 13.08873952 -14.5625 9.5 C-12.6875 7.125 -12.6875 7.125 -10.5625 5.5 C-9.5725 5.5 -8.5825 5.5 -7.5625 5.5 C-7.43875 4.695625 -7.315 3.89125 -7.1875 3.0625 C-6.98125 2.216875 -6.775 1.37125 -6.5625 0.5 C-4.04034162 -0.76107919 -2.76566351 -0.39065552 0 0 Z M-4.5625 1.5 C-5.85883621 2.56645115 -5.85883621 2.56645115 -5.625 5.0625 C-5.604375 5.866875 -5.58375 6.67125 -5.5625 7.5 C-6.325625 7.4175 -7.08875 7.335 -7.875 7.25 C-10.64422479 7.2316931 -10.64422479 7.2316931 -12.375 9.1875 C-13.78242268 11.92827048 -14.03023289 13.45973624 -13.5625 16.5 C-12.03811545 18.63413837 -11.13265073 19.37527953 -8.5625 19.9375 C-7.9025 20.123125 -7.2425 20.30875 -6.5625 20.5 C-6.170625 21.20125 -5.77875 21.9025 -5.375 22.625 C-3.74741102 24.74309302 -3.74741102 24.74309302 -1.41015625 24.57421875 C2.85907192 24.38166819 2.85907192 24.38166819 6.4375 22.5 C6.47842937 20.16702567 6.47991723 17.83294775 6.4375 15.5 C7.4275 15.5 8.4175 15.5 9.4375 15.5 C8.4475 15.995 8.4475 15.995 7.4375 16.5 C7.71290704 20.31813447 7.71290704 20.31813447 9.4375 23.5 C12.71367057 23.43699672 15.35464673 23.34639895 18.01171875 21.26953125 C20.1643471 18.87018332 21.36722543 16.94172589 21.875 13.75 C21.61765448 11.30739337 21.61765448 11.30739337 19.4375 9.5 C18.4475 9.5 17.4575 9.5 16.4375 9.5 C16.1075 10.49 15.7775 11.48 15.4375 12.5 C12.875 13.6875 12.875 13.6875 10.4375 14.5 C13.1875 9.625 13.1875 9.625 15.4375 8.5 C15.16715366 6.06282742 15.16715366 6.06282742 14.4375 3.5 C11.0022952 1.20986347 9.452169 1.32157027 5.4375 1.5 C5.4375 2.49 5.4375 3.48 5.4375 4.5 C5.4375 6.16666667 5.4375 7.83333333 5.4375 9.5 C4.4475 9.17 3.4575 8.84 2.4375 8.5 C2.4375 6.52 2.4375 4.54 2.4375 2.5 C0.1114143 2.11936779 -2.22305264 1.78730055 -4.5625 1.5 Z " fill="#302432" transform="translate(58.5625,194.5)"/>
<path d="M0 0 C11.22 0 22.44 0 34 0 C34 1.98 34 3.96 34 6 C29.62561293 6.50546083 25.25040173 7.00340532 20.875 7.5 C19.6375 7.64308594 18.4 7.78617187 17.125 7.93359375 C15.92617187 8.06894531 14.72734375 8.20429687 13.4921875 8.34375 C12.39245605 8.46943359 11.29272461 8.59511719 10.15966797 8.72460938 C7.08768155 8.99235784 4.08177181 9.04872366 1 9 C0.67 6.03 0.34 3.06 0 0 Z " fill="#FBFAFB" transform="translate(107,117)"/>
<path d="M0 0 C0.99 0 1.98 0 3 0 C1.125 5.75 1.125 5.75 0 8 C-0.66 8 -1.32 8 -2 8 C-2.33 8.99 -2.66 9.98 -3 11 C-5.5625 12.1875 -5.5625 12.1875 -8 13 C-7.67 13.99 -7.34 14.98 -7 16 C-6.60385346 21.24894167 -7.13442683 24.55342094 -10 29 C-10.86625 29.556875 -11.7325 30.11375 -12.625 30.6875 C-15.96588633 33.94046827 -15.49373953 36.64917023 -15.6875 41.16015625 C-16.1565583 45.42272358 -17.85084055 48.32563062 -20 52 C-20.66 52 -21.32 52 -22 52 C-22.33 52.99 -22.66 53.98 -23 55 C-26.08888522 57.05925681 -26.70935927 57.2390374 -30.1875 57.125 C-31.445625 57.08375 -32.70375 57.0425 -34 57 C-34 56.01 -34 55.02 -34 54 C-32.1746875 54.185625 -32.1746875 54.185625 -30.3125 54.375 C-26.63762909 54.35552189 -26.15194125 54.13168241 -23.1875 51.5625 C-19.64485686 46.51183985 -17.40003273 40.19966183 -18 34 C-19.27875 34.04125 -20.5575 34.0825 -21.875 34.125 C-24.0546875 34.1953125 -24.0546875 34.1953125 -26 34 C-28 32 -28 32 -28.3125 29.5 C-28.1578125 28.2625 -28.1578125 28.2625 -28 27 C-25 25 -25 25 -23 25.25 C-21 26 -21 26 -18 28 C-18 28.99 -18 29.98 -18 31 C-13.48209561 28.80210057 -11.72483897 26.72061191 -10 22 C-9.74855688 18.24926796 -9.74855688 18.24926796 -10 15 C-12.31 14.67 -14.62 14.34 -17 14 C-17.33 12.35 -17.66 10.7 -18 9 C-16.68 8.67 -15.36 8.34 -14 8 C-14.33 9.32 -14.66 10.64 -15 12 C-14.34 11.67 -13.68 11.34 -13 11 C-13 10.01 -13 9.02 -13 8 C-12.01 8.33 -11.02 8.66 -10 9 C-10 9.66 -10 10.32 -10 11 C-5.98618593 9.21608264 -3.22436705 7.86337435 -1 4 C-0.29485154 1.85266073 -0.29485154 1.85266073 0 0 Z M-25 27 C-25.33 28.32 -25.66 29.64 -26 31 C-23.69 31.33 -21.38 31.66 -19 32 C-19.71563266 29.9837767 -19.71563266 29.9837767 -21 28 C-23.05000871 27.19471111 -23.05000871 27.19471111 -25 27 Z " fill="#231625" transform="translate(253,145)"/>
<path d="M0 0 C-0.48077476 10.45052509 -1.3127774 20.66371396 -3 31 C-6.95831733 31.02940464 -10.91660597 31.04693328 -14.875 31.0625 C-15.98359375 31.07087891 -17.0921875 31.07925781 -18.234375 31.08789062 C-24.89051489 31.10746751 -31.3939117 30.82879778 -38 30 C-38.8382125 26.06352226 -39.66973255 22.12566049 -40.5 18.1875 C-40.73847656 17.06794922 -40.97695312 15.94839844 -41.22265625 14.79492188 C-41.44824219 13.72177734 -41.67382812 12.64863281 -41.90625 11.54296875 C-42.11572266 10.55321045 -42.32519531 9.56345215 -42.54101562 8.54370117 C-43 6 -43 6 -43 3 C-38.21587267 1.40529089 -33.25914141 1.33041672 -28.25 0.9375 C-27.12795166 0.84807129 -26.00590332 0.75864258 -24.84985352 0.66650391 C-16.54189493 0.03878882 -8.32828526 -0.24375469 0 0 Z M-13.8125 1.5 C-14.85180664 1.57154297 -14.85180664 1.57154297 -15.91210938 1.64453125 C-17.60817838 1.76150153 -19.30410449 1.88054069 -21 2 C-20.86057319 5.56278089 -20.71232922 9.1251426 -20.5625 12.6875 C-20.52318359 13.69490234 -20.48386719 14.70230469 -20.44335938 15.74023438 C-20.40146484 16.71669922 -20.35957031 17.69316406 -20.31640625 18.69921875 C-20.27974854 19.59471436 -20.24309082 20.49020996 -20.20532227 21.4128418 C-19.99938249 24.00778088 -19.56232178 26.46054684 -19 29 C-15.37988365 29.74258797 -11.96033933 30.05815773 -8.27734375 30.03125 C-7.07259399 30.02448242 -7.07259399 30.02448242 -5.84350586 30.01757812 C-5.23514893 30.01177734 -4.62679199 30.00597656 -4 30 C-3.4935767 26.29251453 -2.99600845 22.58389201 -2.5 18.875 C-2.35691406 17.82828125 -2.21382812 16.7815625 -2.06640625 15.703125 C-1.41114246 10.77304508 -0.79292599 5.98703253 -1 1 C-5.28814701 0.93338801 -9.53787381 1.1972992 -13.8125 1.5 Z M-36.5625 3.5 C-37.40941406 3.5928125 -38.25632812 3.685625 -39.12890625 3.78125 C-39.74636719 3.8534375 -40.36382812 3.925625 -41 4 C-40.38580826 12.59868438 -38.19092979 20.69484752 -36 29 C-31.05 29 -26.1 29 -21 29 C-21.495 16.13 -21.495 16.13 -22 3 C-29.34895462 2.9714663 -29.34895462 2.9714663 -36.5625 3.5 Z " fill="#4F394D" transform="translate(149,145)"/>
<path d="M0 0 C2 1.125 2 1.125 3 3 C3.4667512 6.57842586 3.40228636 8.37243328 1.4375 11.4375 C-1.02287556 15.82338687 0.70145311 20.36233253 2 25 C3.32 24.67 4.64 24.34 6 24 C5.67 24.99 5.34 25.98 5 27 C2.75 27.0625 2.75 27.0625 0 26 C-2.41964614 22.35550194 -4.03751437 18.6506322 -3.9375 14.25 C-3 12 -3 12 -1.375 9.4375 C0.25354783 7.1234872 0.25354783 7.1234872 -0.3125 4.6875 C-0.539375 4.130625 -0.76625 3.57375 -1 3 C-4.40080577 3.10407917 -4.40080577 3.10407917 -8 4 C-9.99083177 6.4251788 -9.99083177 6.4251788 -11 9 C-8.9927092 12.0109362 -8.16115776 12.63016497 -5 14 C-5.5657105 21.67921919 -6.19986027 29.34151974 -7 37 C-2.38 36.67 2.24 36.34 7 36 C6 38 6 38 4.26171875 38.6171875 C1.74160938 39.04373451 -0.63193576 39.13254967 -3.1875 39.125 C-4.06792969 39.12757812 -4.94835937 39.13015625 -5.85546875 39.1328125 C-8 39 -8 39 -9 38 C-9.37395662 30.60885747 -8.99306552 23.32385819 -8 16 C-8.804375 15.649375 -9.60875 15.29875 -10.4375 14.9375 C-13 13 -13 13 -14.0625 9.625 C-13.98768176 5.28554185 -13.06407081 3.97652593 -10 1 C-6.81295882 -0.59352059 -3.46825691 -0.3829977 0 0 Z " fill="#231625" transform="translate(70,48)"/>
<path d="M0 0 C3.21759623 0.05217724 5.19930309 0.53529222 7.8125 2.4375 C10.3125 5.375 10.3125 5.375 10.875 9 C10.3125 12.375 10.3125 12.375 9 14.3125 C7.3125 15.375 7.3125 15.375 4.3125 15.375 C4.46847656 16.35339844 4.62445313 17.33179687 4.78515625 18.33984375 C5.87589316 25.54919166 6.58480144 32.12288178 5.3125 39.375 C3.54175083 39.40205729 1.77088289 39.42142195 0 39.4375 C-1.47919922 39.45490234 -1.47919922 39.45490234 -2.98828125 39.47265625 C-5.6875 39.375 -5.6875 39.375 -8.6875 38.375 C-8.6875 37.715 -8.6875 37.055 -8.6875 36.375 C-4.7275 36.705 -0.7675 37.035 3.3125 37.375 C2.9825 30.445 2.6525 23.515 2.3125 16.375 C1.6525 16.375 0.9925 16.375 0.3125 16.375 C0.10753906 17.00148438 -0.09742188 17.62796875 -0.30859375 18.2734375 C-0.57800781 19.09070313 -0.84742188 19.90796875 -1.125 20.75 C-1.39183594 21.56210938 -1.65867188 22.37421875 -1.93359375 23.2109375 C-2.6875 25.375 -2.6875 25.375 -3.6875 27.375 C-5.3375 27.375 -6.9875 27.375 -8.6875 27.375 C-9.0175 26.385 -9.3475 25.395 -9.6875 24.375 C-8.3675 24.375 -7.0475 24.375 -5.6875 24.375 C-3.41940375 20.05786403 -3.41940375 20.05786403 -2.8125 15.375 C-3.61561502 13.53930852 -4.49202937 11.73614388 -5.375 9.9375 C-6.6875 6.375 -6.6875 6.375 -5.9375 3.5 C-4.12546394 0.41953871 -4.12546394 0.41953871 0 0 Z M-3.6875 4.375 C-4.27404327 7.9920168 -3.84542086 9.15292378 -1.6875 12.1875 C-1.0275 12.909375 -0.3675 13.63125 0.3125 14.375 C2.99107172 14.01303085 4.92230914 13.63512724 7.1875 12.125 C8.54655175 10.37102692 8.54655175 10.37102692 8.25 7.875 C7.10679669 4.82645784 6.17928407 3.88802492 3.3125 2.375 C-0.66661994 1.8912748 -0.66661994 1.8912748 -3.6875 4.375 Z " fill="#231625" transform="translate(180.6875,47.625)"/>
<path d="M0 0 C4.95 0 9.9 0 15 0 C15 5.28 15 10.56 15 16 C12.55859375 15.609375 10.1171875 15.21875 7.67578125 14.828125 C4.28396411 14.78924293 4.28396411 14.78924293 0 19 C0 12.73 0 6.46 0 0 Z " fill="#EEEDEE" transform="translate(141,212)"/>
<path d="M0 0 C3.125 1.5625 3.125 1.5625 5 4 C5.5 7.5625 5.5 7.5625 5 11 C4.49082031 11.4846875 3.98164063 11.969375 3.45703125 12.46875 C2.73580078 13.22671875 2.73580078 13.22671875 2 14 C2.14880606 17.12492735 2.47551426 19.93309188 3 23 C3.17273438 24.07507813 3.34546875 25.15015625 3.5234375 26.2578125 C3.9992849 29.17496393 4.49253034 32.08820807 5 35 C4.34 35 3.68 35 3 35 C-2 18.44186047 -2 18.44186047 -2 13 C0 10.8125 0 10.8125 2 9 C2.01453953 6.32024404 2.01453953 6.32024404 1 4 C-2.05693322 2.47153339 -4.62984547 2.76757555 -8 3 C-10.50098982 4.01990794 -10.50098982 4.01990794 -12 6 C-12.33425735 8.62625139 -12.33425735 8.62625139 -12 11 C-8.535 12.485 -8.535 12.485 -5 14 C-6.52463563 21.49612516 -8.68006154 28.71359134 -11 36 C-11.99 35.67 -12.98 35.34 -14 35 C-12.02 28.73 -10.04 22.46 -8 16 C-9.98 15.34 -11.96 14.68 -14 14 C-16 11 -16 11 -15.9375 8.125 C-13.45678601 -0.14404664 -7.76879494 -1.34998732 0 0 Z " fill="#231625" transform="translate(127,13)"/>
<path d="M0 0 C9.82949002 2.88331707 18.26671929 7.57462994 23.5546875 16.67578125 C24.76577855 19.09454219 25.91772524 21.52124167 27 24 C25.02 24.66 23.04 25.32 21 26 C20.6596875 25.34773438 20.319375 24.69546875 19.96875 24.0234375 C14.9970961 15.05859349 8.84185267 10.78933687 0 6 C0 4.02 0 2.04 0 0 Z " fill="#EBBB01" transform="translate(193,20)"/>
<path d="M0 0 C0.66 0 1.32 0 2 0 C1.42415568 2.38564077 0.77772405 4.66682784 0 7 C-0.37120831 11.00904978 -0.31299025 13.37401949 1.5 17 C3.73343829 19.19191586 3.73343829 19.19191586 6.046875 19.08203125 C8.52323275 18.81317496 8.52323275 18.81317496 12 18 C11.67 18.99 11.34 19.98 11 21 C11.66 21 12.32 21 13 21 C13 20.34 13 19.68 13 19 C13.99 19.33 14.98 19.66 16 20 C15.67 21.32 15.34 22.64 15 24 C7.25 24.125 7.25 24.125 5 23 C4.71125 23.86625 4.4225 24.7325 4.125 25.625 C3.43718442 27.68844675 2.69855062 29.73687627 1.875 31.75 C0.35606968 37.39174121 -0.11037312 42.73298821 2.5 48.0625 C5.98975948 50.7670636 8.63233688 50.64199483 13 51 C13.33 51.66 13.66 52.32 14 53 C12.58376784 53.05447047 11.16691809 53.09300508 9.75 53.125 C8.96109375 53.14820313 8.1721875 53.17140625 7.359375 53.1953125 C4.73765765 52.97828292 3.21340451 52.40245889 1 51 C-2.53979306 45.94315277 -2.80794016 40.95324328 -2 35 C-1.1037154 32.03566479 -0.0602554 29.207908 1.125 26.34765625 C2.17462162 23.94905347 2.17462162 23.94905347 2 21 C1.175 20.319375 0.35 19.63875 -0.5 18.9375 C-3.6520172 15.23387979 -3.60061431 13.16596783 -3.375 8.44921875 C-2.8816693 5.22715259 -1.73278622 2.74357817 0 0 Z " fill="#231625" transform="translate(4,84)"/>
<path d="M0 0 C0.66 0.66 1.32 1.32 2 2 C1.67 2.99 1.34 3.98 1 5 C0.67 4.01 0.34 3.02 0 2 C-2.97 1.67 -5.94 1.34 -9 1 C-9 1.66 -9 2.32 -9 3 C-9.721875 2.649375 -10.44375 2.29875 -11.1875 1.9375 C-14.37605276 0.87464908 -15.86992077 0.8156457 -19 2 C-19.6837045 3.32467746 -20.34964186 4.65863633 -21 6 C-22.64363134 6.72159424 -24.31050386 7.39351421 -26 8 C-27.39935013 10.79870027 -27.25265405 12.90498792 -27 16 C-25.491097 18.1124642 -24.19196215 18.90401893 -21.875 20.0625 C-20 21 -20 21 -19 23 C-15.37 23 -11.74 23 -8 23 C-8 20.69 -8 18.38 -8 16 C-6.68 16 -5.36 16 -4 16 C-4 18.31 -4 20.62 -4 23 C-0.28111761 22.49287967 2.73454239 21.88391785 6 20 C5.4375 21.875 5.4375 21.875 4 24 C-0.57112939 25.81120221 -3.31103629 25.98141101 -8 25 C-9.542365 25.30903488 -11.08394285 25.62200798 -12.625 25.9375 C-17.64484967 26.57913492 -20.03409617 25.07427355 -24.0625 22.125 C-28.23021583 18.76978417 -28.23021583 18.76978417 -30 17 C-30.39488214 12.89322576 -30.3856935 10.64741409 -28.25 7.0625 C-26 5 -26 5 -22 5 C-21.855625 4.195625 -21.71125 3.39125 -21.5625 2.5625 C-21 0 -21 0 -20 -1 C-17.21697443 -1.07252184 -14.44719465 -0.99624685 -11.6640625 -0.9375 C-2.83165573 -1.14471189 -2.83165573 -1.14471189 0 0 Z " fill="#2F2331" transform="translate(184,9)"/>
<path d="M0 0 C0 2.97 0 5.94 0 9 C-8.91 9.99 -8.91 9.99 -18 11 C-18 7.7 -18 4.4 -18 1 C-11.95170514 0.10395632 -6.1105424 -0.11269443 0 0 Z " fill="#FCFCFC" transform="translate(124,213)"/>
<path d="M0 0 C1.051875 0.495 1.051875 0.495 2.125 1 C5.26003116 2.09044562 7.70563182 2.15322643 11 2 C12 5 12 5 11 8 C11.99 9.485 11.99 9.485 13 11 C13 11.99 13 12.98 13 14 C7.25 14.125 7.25 14.125 5 13 C4.7525 13.639375 4.505 14.27875 4.25 14.9375 C3 17 3 17 0.875 17.75 C-0.053125 17.87375 -0.053125 17.87375 -1 18 C-1 16.02 -1 14.04 -1 12 C-2.65 11.67 -4.3 11.34 -6 11 C-4.25 7.125 -4.25 7.125 -2 6 C-1.27306096 4.02111039 -0.60183749 2.02045442 0 0 Z M1 3 C1 3.66 1 4.32 1 5 C1.66 4.67 2.32 4.34 3 4 C2.34 3.67 1.68 3.34 1 3 Z M4 6 C3.01 6.66 2.02 7.32 1 8 C1.33 8.99 1.66 9.98 2 11 C2.99 11 3.98 11 5 11 C5.33 9.68 5.66 8.36 6 7 C5.34 6.67 4.68 6.34 4 6 Z " fill="#241626" transform="translate(62,15)"/>
<path d="M0 0 C5.94 0 11.88 0 18 0 C18 2.64 18 5.28 18 8 C15.56281065 8.33575056 13.12529385 8.66869285 10.6875 9 C9.99720703 9.09539062 9.30691406 9.19078125 8.59570312 9.2890625 C5.70352927 9.68027442 2.92235023 10 0 10 C0 6.7 0 3.4 0 0 Z " fill="#F7F7F8" transform="translate(105,203)"/>
<path d="M0 0 C0.99 0 1.98 0 3 0 C3.12375 1.3921875 3.12375 1.3921875 3.25 2.8125 C3.70257552 6.08509879 3.70257552 6.08509879 6.0625 7.875 C6.701875 8.24625 7.34125 8.6175 8 9 C7.67 9.99 7.34 10.98 7 12 C5.68 12 4.36 12 3 12 C3 13.65 3 15.3 3 17 C1.68 17 0.36 17 -1 17 C-1.66 15.68 -2.32 14.36 -3 13 C-5.64 13 -8.28 13 -11 13 C-10.42415568 10.61435923 -9.77772405 8.33317216 -9 6 C-9 4.68 -9 3.36 -9 2 C-7.329375 2.061875 -7.329375 2.061875 -5.625 2.125 C-1.95633975 2.41121859 -1.95633975 2.41121859 0 0 Z M0 3 C1 5 1 5 1 5 Z M-3 6 C-3.33 6.99 -3.66 7.98 -4 9 C-3.67 9.66 -3.34 10.32 -3 11 C-1.68 10.67 -0.36 10.34 1 10 C1 9.01 1 8.02 1 7 C-0.32 6.67 -1.64 6.34 -3 6 Z M0 13 C1 15 1 15 1 15 Z " fill="#231625" transform="translate(205,98)"/>
<path d="M0 0 C2.0625 0.4375 2.0625 0.4375 4 1 C3.67 2.65 3.34 4.3 3 6 C4.32 6.66 5.64 7.32 7 8 C6.67 8.99 6.34 9.98 6 11 C4.02 11.33 2.04 11.66 0 12 C-0.66 13.98 -1.32 15.96 -2 18 C-2.99 18 -3.98 18 -5 18 C-5.33 16.35 -5.66 14.7 -6 13 C-7.65 13 -9.3 13 -11 13 C-10.125 8.25 -10.125 8.25 -9 6 C-8.9603287 4.33380554 -8.95615553 2.66608987 -9 1 C-7.700625 1.020625 -6.40125 1.04125 -5.0625 1.0625 C-3.70834367 1.08399454 -2.35243917 1.07148199 -1 1 C-0.67 0.67 -0.34 0.34 0 0 Z M-7 3 C-7 3.66 -7 4.32 -7 5 C-6.34 4.67 -5.68 4.34 -5 4 C-5.66 3.67 -6.32 3.34 -7 3 Z M-3 5 C-3.66 5.66 -4.32 6.32 -5 7 C-4.6814823 9.10820797 -4.6814823 9.10820797 -4 11 C-3.01 10.67 -2.02 10.34 -1 10 C-0.26676204 7.98491642 -0.26676204 7.98491642 0 6 C-0.99 5.67 -1.98 5.34 -3 5 Z " fill="#231625" transform="translate(75,230)"/>
<path d="M0 0 C2.31 0 4.62 0 7 0 C7.96205088 6.37358711 8.10655578 12.55929529 8 19 C4.04 19.495 4.04 19.495 0 20 C0 13.4 0 6.8 0 0 Z " fill="#F3F2F3" transform="translate(79,139)"/>
<path d="M0 0 C0.33 0 0.66 0 1 0 C1 3.96 1 7.92 1 12 C2.32 12.33 3.64 12.66 5 13 C4.01 13.495 4.01 13.495 3 14 C2.57410977 19.53657294 4.094753 23.89665983 6 29 C6.66 29 7.32 29 8 29 C8.268125 28.21625 8.53625 27.4325 8.8125 26.625 C10 24 10 24 13 22 C11.66666667 25.33333333 10.33333333 28.66666667 9 32 C21.32108358 43.07652968 34.14594108 43.68667868 50 44 C42.14088288 48.14352405 32.34051354 45.97508778 24 44 C14.81475044 41.12147297 7.71935441 35.3202742 2.9609375 26.953125 C-0.91577052 19.07363716 -2.13813472 8.55253887 0 0 Z " fill="#312533" transform="translate(37,115)"/>
<path d="M0 0 C6.31391253 2.65551579 10.63907903 8.66091708 14 14.4375 C15 17 15 17 15 19 C16.65614657 19.38218767 18.32457024 19.71395102 20 20 C20.33 19.67 20.66 19.34 21 19 C26.24837209 18.49209302 26.24837209 18.49209302 29 19 C30.6875 21.3125 30.6875 21.3125 32 24 C33.64142963 25.0409066 35.30712215 26.04504326 37 27 C39.32749345 30.49124017 39.50299316 31.89222251 39 36 C37 38.375 37 38.375 35 40 C35 37 35 37 36 36 C36.41521605 31.85267198 36.41521605 31.85267198 34.75 28.1875 C33.05768396 26.86687259 33.05768396 26.86687259 30.9375 26.625 C30.298125 26.41875 29.65875 26.2125 29 26 C27.75 23.4375 27.75 23.4375 27 21 C25.02 21.33 23.04 21.66 21 22 C21.33 23.98 21.66 25.96 22 28 C20.02 28.99 20.02 28.99 18 30 C17.34 29.34 16.68 28.68 16 28 C16.3269756 25.38419521 16.82039068 23.35921863 18 21 C15.36 21 12.72 21 10 21 C10.99 20.01 11.98 19.02 13 18 C9.70303959 11.99784131 6.37832918 6.93028117 1.3203125 2.27734375 C0.88460937 1.85582031 0.44890625 1.43429688 0 1 C0 0.67 0 0.34 0 0 Z " fill="#432F33" transform="translate(206,25)"/>
<path d="M0 0 C4.26063959 0.8302317 6.24567419 2.616114 9 6 C8.68981246 9.24404467 7.43222461 11.02231262 5.1875 13.3125 C4.68605469 13.84488281 4.18460938 14.37726563 3.66796875 14.92578125 C2 16 2 16 -0.01171875 15.79296875 C-2 15 -2 15 -5 13 C-4.39254603 8.14036821 -2.27241033 4.2594482 0 0 Z " fill="#F9F9F9" transform="translate(190,132)"/>
<path d="M0 0 C5.61 0 11.22 0 17 0 C17.33 2.31 17.66 4.62 18 7 C14.00204108 7.95619733 10.29196078 8.1039592 6.1875 8.0625 C5.02605469 8.05347656 3.86460938 8.04445312 2.66796875 8.03515625 C1.78753906 8.02355469 0.90710938 8.01195312 0 8 C0 5.36 0 2.72 0 0 Z " fill="#FCFCFC" transform="translate(105,194)"/>
<path d="M0 0 C0.22127098 2.29045368 0.4266504 4.58244764 0.625 6.875 C0.74101562 8.15117187 0.85703125 9.42734375 0.9765625 10.7421875 C0.98429688 11.81726563 0.99203125 12.89234375 1 14 C0.34 14.66 -0.32 15.32 -1 16 C-3.31 16 -5.62 16 -8 16 C-8.33 11.38 -8.66 6.76 -9 2 C-5.23312136 0.11656068 -3.97041037 -0.22057835 0 0 Z " fill="#F2F1F2" transform="translate(173,126)"/>
<path d="M0 0 C1.49821059 3.37097383 2 5.20442119 2 9 C0.58774074 9.67595315 -0.83002905 10.34040059 -2.25 11 C-3.43335938 11.556875 -3.43335938 11.556875 -4.640625 12.125 C-7 13 -7 13 -11 13 C-11.02687279 11.18757948 -11.04633715 9.37504767 -11.0625 7.5625 C-11.07410156 6.55316406 -11.08570313 5.54382813 -11.09765625 4.50390625 C-11 2 -11 2 -10 1 C-6.62658866 0.43776478 -3.42229689 0 0 0 Z " fill="#F6F5F6" transform="translate(49,114)"/>
<path d="M0 0 C4.62 0 9.24 0 14 0 C14 2.97 14 5.94 14 9 C9.38 9 4.76 9 0 9 C0 6.03 0 3.06 0 0 Z " fill="#F7F6F7" transform="translate(142,202)"/>
<path d="M0 0 C0 1.32 0 2.64 0 4 C-11.01889539 4.7068249 -21.95687814 5.14659011 -33 5 C-33 3.68 -33 2.36 -33 1 C-28.81258759 0.83108389 -24.62505782 0.66526895 -20.4375 0.5 C-19.25607422 0.45230469 -18.07464844 0.40460938 -16.85742188 0.35546875 C-11.23422023 0.13495104 -5.62766082 -0.06611055 0 0 Z " fill="#FAF9FA" transform="translate(140,111)"/>
<path d="M0 0 C-0.33 0.99 -0.66 1.98 -1 3 C-1.66 3 -2.32 3 -3 3 C-3.20589721 10.56407533 -3.20589721 10.56407533 -2 18 C-1.21625 18.144375 -0.4325 18.28875 0.375 18.4375 C3 19 3 19 5 20 C5 21.65 5 23.3 5 25 C3.02 24.67 1.04 24.34 -1 24 C-1.33 22.68 -1.66 21.36 -2 20 C-2.68707031 20.27714844 -3.37414063 20.55429688 -4.08203125 20.83984375 C-4.98308594 21.20207031 -5.88414063 21.56429687 -6.8125 21.9375 C-7.70582031 22.29714844 -8.59914063 22.65679687 -9.51953125 23.02734375 C-11.3270909 23.73613486 -13.15807409 24.3860247 -15 25 C-15.73323796 27.01508358 -15.73323796 27.01508358 -16 29 C-16.99 28.67 -17.98 28.34 -19 28 C-17.38405168 25.95880212 -15.7143618 23.95927063 -14 22 C-13.34 22 -12.68 22 -12 22 C-12 21.34 -12 20.68 -12 20 C-9.09399739 18.74335022 -7.20395416 18 -4 18 C-4.66 17.01 -5.32 16.02 -6 15 C-6.30078125 12.44140625 -6.30078125 12.44140625 -6.3125 9.5625 C-6.32925781 8.61503906 -6.34601562 7.66757812 -6.36328125 6.69140625 C-5.77484819 2.33193984 -4.56139856 0 0 0 Z " fill="#231624" transform="translate(24,55)"/>
<path d="M0 0 C5.43877443 0.35295881 8.05388809 2.38633938 11.625 6.25 C12.0890625 6.72824219 12.553125 7.20648438 13.03125 7.69921875 C21 16.00562765 21 16.00562765 21 19 C19.04604346 19.80240849 17.08653232 20.59129309 15.125 21.375 C14.03445312 21.81585938 12.94390625 22.25671875 11.8203125 22.7109375 C7.34108168 24.36325409 2.68801725 25.16450008 -2 26 C-2.05814085 22.41673499 -2.09364357 18.83359162 -2.125 15.25 C-2.14175781 14.23421875 -2.15851563 13.2184375 -2.17578125 12.171875 C-2.18222656 11.1921875 -2.18867188 10.2125 -2.1953125 9.203125 C-2.20578613 8.30239258 -2.21625977 7.40166016 -2.22705078 6.47363281 C-1.98721676 3.86073144 -1.32312064 2.24335334 0 0 Z M1 2 C-0.66674321 4.91824244 -1.2432008 6.97594379 -1.1953125 10.328125 C-1.18886719 11.12734375 -1.18242187 11.9265625 -1.17578125 12.75 C-1.15902344 13.575 -1.14226562 14.4 -1.125 15.25 C-1.11597656 16.09046875 -1.10695312 16.9309375 -1.09765625 17.796875 C-1.07415817 19.86470604 -1.03828908 21.93238995 -1 24 C3.71563715 23.435075 7.95460366 22.49895828 12.4375 20.9375 C13.48808594 20.57527344 14.53867188 20.21304688 15.62109375 19.83984375 C16.40613281 19.56269531 17.19117188 19.28554687 18 19 C16.5521264 14.56740372 14.29530181 11.69793604 11.1875 8.25 C10.33542969 7.28578125 9.48335937 6.3215625 8.60546875 5.328125 C5.91361942 2.92281436 4.53963241 2.2796119 1 2 Z " fill="#36303D" transform="translate(199,193)"/>
<path d="M0 0 C4.29 0 8.58 0 13 0 C13 2.64 13 5.28 13 8 C8.71 8 4.42 8 0 8 C0 5.36 0 2.72 0 0 Z " fill="#FBFAFB" transform="translate(143,193)"/>
<path d="M0 0 C1.56303661 1.56303661 1.12973386 3.09325858 1.1328125 5.26171875 C1.13474609 6.56979492 1.13474609 6.56979492 1.13671875 7.90429688 C1.13285156 8.82275391 1.12898438 9.74121094 1.125 10.6875 C1.13080078 12.03618164 1.13080078 12.03618164 1.13671875 13.41210938 C1.12990651 18.05465229 0.95414835 22.4337186 0 27 C-3.95820859 26.43454163 -6.6659053 25.19097652 -10 23 C-9.34 22.67 -8.68 22.34 -8 22 C-6.02 22.99 -4.04 23.98 -2 25 C-1.34 17.41 -0.68 9.82 0 2 C-5.41889346 3.80629782 -7.24983025 4.69984156 -11.1875 8.375 C-12.02667969 9.14585937 -12.86585937 9.91671875 -13.73046875 10.7109375 C-16.01554582 12.90227038 -16.01554582 12.90227038 -17.67578125 15.2890625 C-18.33126953 16.13597656 -18.33126953 16.13597656 -19 17 C-19.66 17 -20.32 17 -21 17 C-19.9710319 10.39990461 -13.34584661 5.88286739 -8.3125 2 C-5.07732648 0.04668769 -3.67298695 -0.64817417 0 0 Z " fill="#312836" transform="translate(31,146)"/>
<path d="M0 0 C3 1 3 1 5 4 C7.05003955 5.19232613 7.05003955 5.19232613 9 6 C8.21625 6.9075 7.4325 7.815 6.625 8.75 C4.69947504 11.05190236 3.17794259 13.21577207 2 16 C1.62875 15.21625 1.2575 14.4325 0.875 13.625 C-1.43306306 10.39371171 -3.21616321 9.92493788 -7 9 C-7 8.34 -7 7.68 -7 7 C-5.02 6.34 -3.04 5.68 -1 5 C-0.67 3.35 -0.34 1.7 0 0 Z " fill="#F2C40F" transform="translate(148,67)"/>
<path d="M0 0 C0.99 0.33 1.98 0.66 3 1 C3.6875 3.0625 3.6875 3.0625 4 5 C6.97 5.495 6.97 5.495 10 6 C9.21625 6.556875 8.4325 7.11375 7.625 7.6875 C4.91295142 10.07668565 4.03866457 11.60073413 3 15 C2.34 15 1.68 15 1 15 C0.79375 14.38125 0.5875 13.7625 0.375 13.125 C-1.54775888 10.15346355 -3.66594527 9.86975341 -7 9 C-5.71034824 7.62437146 -4.37310707 6.29233607 -3 5 C-2.34 5 -1.68 5 -1 5 C-0.67 3.35 -0.34 1.7 0 0 Z " fill="#F2C40E" transform="translate(102,68)"/>
<path d="M0 0 C2.875 1.6875 2.875 1.6875 5 4 C5.3125 6.75 5.3125 6.75 5 9 C5.66 9.33 6.32 9.66 7 10 C6.34 10 5.68 10 5 10 C4.67 11.32 4.34 12.64 4 14 C2.35 14.33 0.7 14.66 -1 15 C-0.75 13.125 -0.75 13.125 0 11 C2.0625 9.75 2.0625 9.75 4 9 C2.88145414 5.27385847 2.88145414 5.27385847 0 3 C-1.99960012 2.960008 -4.00047242 2.95653201 -6 3 C-5.67 5.31 -5.34 7.62 -5 10 C-6.32 10 -7.64 10 -9 10 C-10.125 5.25 -10.125 5.25 -9 3 C-9.66 2.67 -10.32 2.34 -11 2 C-7.17369543 0.19938608 -4.22501011 -0.52812626 0 0 Z " fill="#524854" transform="translate(70,194)"/>
<path d="M0 0 C4.59685106 4.77031713 7.75349992 9.78908802 10 16 C7 15 7 15 5.89453125 13.1796875 C5.35892578 12.03886719 5.35892578 12.03886719 4.8125 10.875 C0.59373331 2.97736831 -5.31954075 -1.27858416 -13.65625 -4.2890625 C-16.41782571 -5.12674047 -19.129322 -5.69782337 -22 -6 C-22 -3.36 -22 -0.72 -22 2 C-22.33 2 -22.66 2 -23 2 C-23 -0.64 -23 -3.28 -23 -6 C-27.455 -5.505 -27.455 -5.505 -32 -5 C-24.0488281 -12.9511719 -7.23272966 -5.88128536 0 0 Z " fill="#352937" transform="translate(196,132)"/>
<path d="M0 0 C2.60018816 3.90028225 2.15085514 7.47434569 2 12 C0 8.25 0 8.25 0 6 C-11.22 6 -22.44 6 -34 6 C-34 8.97 -34 11.94 -34 15 C-34.33 15 -34.66 15 -35 15 C-36.20568053 10.32798795 -36.09382426 5.78503708 -36 1 C-35.01 1.495 -35.01 1.495 -34 2 C-34 2.99 -34 3.98 -34 5 C-32.70642578 4.89171875 -32.70642578 4.89171875 -31.38671875 4.78125 C-20.91006942 3.98471489 -10.50353034 3.89824352 0 4 C0 2.68 0 1.36 0 0 Z " fill="#8F8990" transform="translate(141,111)"/>
<path d="M0 0 C0.99 0 1.98 0 3 0 C3.268125 0.61875 3.53625 1.2375 3.8125 1.875 C4.95556848 4.2995233 4.95556848 4.2995233 8 6 C8 6.66 8 7.32 8 8 C7.38125 8.061875 6.7625 8.12375 6.125 8.1875 C3.72238859 8.828919 3.72238859 8.828919 2.75 11.5625 C2.5025 12.366875 2.255 13.17125 2 14 C1.34 14 0.68 14 0 14 C-0.33 12.35 -0.66 10.7 -1 9 C-2.65 8.67 -4.3 8.34 -6 8 C-5.67 7.01 -5.34 6.02 -5 5 C-2.9375 4.3125 -2.9375 4.3125 -1 4 C-0.67 2.68 -0.34 1.36 0 0 Z M1 4 C1 4.66 1 5.32 1 6 C0.01 6.495 0.01 6.495 -1 7 C-0.34 7 0.32 7 1 7 C1.33 7.66 1.66 8.32 2 9 C2.33 8.01 2.66 7.02 3 6 C2.34 5.34 1.68 4.68 1 4 Z " fill="#231525" transform="translate(220,125)"/>
<path d="M0 0 C1.9375 0.75 1.9375 0.75 3.9375 2.75 C4.1875 5.25 4.1875 5.25 3.9375 7.75 C1.9375 9.75 1.9375 9.75 -1.0625 10.0625 C-2.0525 9.959375 -3.0425 9.85625 -4.0625 9.75 C-6.0625 6.75 -6.0625 6.75 -5.875 4.1875 C-4.82466493 1.0364948 -3.46422443 -0.41990599 0 0 Z " fill="#9D5768" transform="translate(148.0625,233.25)"/>
<path d="M0 0 C0.66 0 1.32 0 2 0 C2.33 0.99 2.66 1.98 3 3 C3.99 2.67 4.98 2.34 6 2 C6.33 3.65 6.66 5.3 7 7 C6.01 7.495 6.01 7.495 5 8 C5 8.66 5 9.32 5 10 C4.34 10 3.68 10 3 10 C2.67 10.66 2.34 11.32 2 12 C1.34 12 0.68 12 0 12 C-0.33 11.34 -0.66 10.68 -1 10 C-1.99 10 -2.98 10 -4 10 C-4.33 8.35 -4.66 6.7 -5 5 C-4.34 4.67 -3.68 4.34 -3 4 C-3 3.34 -3 2.68 -3 2 C-2.01 2 -1.02 2 0 2 C0 1.34 0 0.68 0 0 Z " fill="#241626" transform="translate(181,190)"/>
<path d="M0 0 C3.375 4.5 3.375 4.5 4 8 C2.87926138 8.83905565 1.75325453 9.67107831 0.625 10.5 C-0.00148437 10.9640625 -0.62796875 11.428125 -1.2734375 11.90625 C-3 13 -3 13 -5 13 C-6.625 10.5 -6.625 10.5 -8 8 C-5.36 5.36 -2.72 2.72 0 0 Z " fill="#FBF9FA" transform="translate(200,141)"/>
<path d="M0 0 C3.0625 0.1875 3.0625 0.1875 5.0625 2.1875 C5.3125 4.6875 5.3125 4.6875 5.0625 7.1875 C3.0625 9.1875 3.0625 9.1875 0.0625 9.5 C-0.9275 9.396875 -1.9175 9.29375 -2.9375 9.1875 C-4.9375 6.1875 -4.9375 6.1875 -4.625 3.5625 C-3.63731654 0.1505026 -3.65603948 0.23336422 0 0 Z " fill="#9D5769" transform="translate(117.9375,234.8125)"/>
<path d="M0 0 C0.99 0 1.98 0 3 0 C3.268125 0.61875 3.53625 1.2375 3.8125 1.875 C4.95556848 4.2995233 4.95556848 4.2995233 8 6 C8 6.66 8 7.32 8 8 C7.38125 8.268125 6.7625 8.53625 6.125 8.8125 C3.7004767 9.95556848 3.7004767 9.95556848 2 13 C1.01 12.67 0.02 12.34 -1 12 C-1 11.01 -1 10.02 -1 9 C-2.65 8.67 -4.3 8.34 -6 8 C-5.34 6.68 -4.68 5.36 -4 4 C-3.01 4 -2.02 4 -1 4 C-0.67 2.68 -0.34 1.36 0 0 Z M1 4 C0.01 4.99 -0.98 5.98 -2 7 C-1.01 7 -0.02 7 1 7 C1.33 7.66 1.66 8.32 2 9 C2 8.34 2 7.68 2 7 C2.66 6.67 3.32 6.34 4 6 C3.34 6 2.68 6 2 6 C1.67 5.34 1.34 4.68 1 4 Z " fill="#231625" transform="translate(29,188)"/>
<path d="M0 0 C0.66 0 1.32 0 2 0 C2.33 0.66 2.66 1.32 3 2 C3.99 2 4.98 2 6 2 C6.08226668 5.04386724 5.97608217 7.07175348 5 10 C4.34 10 3.68 10 3 10 C2.67 10.66 2.34 11.32 2 12 C1.34 12 0.68 12 0 12 C-0.33 11.01 -0.66 10.02 -1 9 C-1.99 9.33 -2.98 9.66 -4 10 C-4.33 8.35 -4.66 6.7 -5 5 C-4.34 4.67 -3.68 4.34 -3 4 C-3 3.34 -3 2.68 -3 2 C-2.34 2 -1.68 2 -1 2 C-0.67 1.34 -0.34 0.68 0 0 Z " fill="#231725" transform="translate(43,77)"/>
<path d="M0 0 C0.66 0 1.32 0 2 0 C2 0.99 2 1.98 2 3 C3.32 2.67 4.64 2.34 6 2 C5.67 4.64 5.34 7.28 5 10 C4.34 10 3.68 10 3 10 C2.67 10.66 2.34 11.32 2 12 C1.34 12 0.68 12 0 12 C-0.33 11.01 -0.66 10.02 -1 9 C-1.99 9 -2.98 9 -4 9 C-4.33 7.68 -4.66 6.36 -5 5 C-4.34 4.67 -3.68 4.34 -3 4 C-3 3.34 -3 2.68 -3 2 C-2.01 2 -1.02 2 0 2 C0 1.34 0 0.68 0 0 Z " fill="#221624" transform="translate(32,219)"/>
<path d="M0 0 C0.33 0.99 0.66 1.98 1 3 C2.77363198 3.62702682 2.77363198 3.62702682 4.9375 3.875 C10.49080355 4.91066433 15.07672127 7.30710015 20 10 C19.01 10.495 19.01 10.495 18 11 C15.3984375 10.00390625 15.3984375 10.00390625 12.375 8.5625 C11.37210938 8.08941406 10.36921875 7.61632812 9.3359375 7.12890625 C8.56507813 6.75636719 7.79421875 6.38382813 7 6 C7.44703986 10.47883696 7.44703986 10.47883696 10 14 C8.02 14.33 6.04 14.66 4 15 C4.33 12.36 4.66 9.72 5 7 C3.68 6.01 2.36 5.02 1 4 C0.67 5.32 0.34 6.64 0 8 C-1.65 8.33 -3.3 8.66 -5 9 C-4.67 7.35 -4.34 5.7 -4 4 C-2.68 3.67 -1.36 3.34 0 3 C0 2.01 0 1.02 0 0 Z " fill="#4C3635" transform="translate(186,14)"/>
<path d="M0 0 C0.33 0 0.66 0 1 0 C1 1.98 1 3.96 1 6 C5.62 6 10.24 6 15 6 C15 6.33 15 6.66 15 7 C10.05 7 5.1 7 0 7 C0 10.3 0 13.6 0 17 C1.98 17 3.96 17 6 17 C6 17.33 6 17.66 6 18 C4.02 18 2.04 18 0 18 C-0.04898438 18.84304687 -0.09796875 19.68609375 -0.1484375 20.5546875 C-0.22320312 21.65039062 -0.29796875 22.74609375 -0.375 23.875 C-0.47941406 25.51082031 -0.47941406 25.51082031 -0.5859375 27.1796875 C-1 30 -1 30 -3 32 C-2.19148936 10.46808511 -2.19148936 10.46808511 0 0 Z " fill="#382C3A" transform="translate(141,205)"/>
<path d="M0 0 C4.95 0 9.9 0 15 0 C15 1.65 15 3.3 15 5 C14.33613281 4.88140625 13.67226562 4.7628125 12.98828125 4.640625 C7.16431089 3.68915297 7.16431089 3.68915297 1.875 5.9375 C1.25625 6.618125 0.6375 7.29875 0 8 C0 5.36 0 2.72 0 0 Z " fill="#FEFCFC" transform="translate(141,223)"/>
<path d="M0 0 C3.02160601 1.56793421 4.59513344 3.01096859 6.171875 6.02734375 C6.3575 6.76984375 6.543125 7.51234375 6.734375 8.27734375 C6.074375 8.27734375 5.414375 8.27734375 4.734375 8.27734375 C4.0125 7.49359375 3.290625 6.70984375 2.546875 5.90234375 C-0.86587751 2.71710807 -2.63988508 1.93816374 -7.265625 1.27734375 C-11.32005091 1.70920616 -15.27966694 2.42648242 -19.265625 3.27734375 C-19.265625 2.61734375 -19.265625 1.95734375 -19.265625 1.27734375 C-13.23503613 -1.48391489 -6.38170298 -2.03554319 0 0 Z " fill="#231725" transform="translate(43.265625,51.72265625)"/>
<path d="M0 0 C0.99 0.33 1.98 0.66 3 1 C3 3.31 3 5.62 3 8 C6.71888239 7.49287967 9.73454239 6.88391785 13 5 C12.4375 6.875 12.4375 6.875 11 9 C5.58966812 11.27233939 1.60847522 10.98394302 -4 10 C-4 9.34 -4 8.68 -4 8 C-3.01 8 -2.02 8 -1 8 C-1.020625 6.865625 -1.04125 5.73125 -1.0625 4.5625 C-1 1 -1 1 0 0 Z " fill="#5C525D" transform="translate(177,24)"/>
<path d="M0 0 C0.33 0.66 0.66 1.32 1 2 C0.67 2.99 0.34 3.98 0 5 C2.475 5.99 2.475 5.99 5 7 C5 8.32 5 9.64 5 11 C3.35 10.67 1.7 10.34 0 10 C-0.33 8.68 -0.66 7.36 -1 6 C-2.32 6.33 -3.64 6.66 -5 7 C-5.33 9.97 -5.66 12.94 -6 16 C-8 13 -8 13 -7.875 10 C-7 7 -7 7 -5.0625 5.125 C-3 4 -3 4 -1 4 C-0.67 2.68 -0.34 1.36 0 0 Z " fill="#302332" transform="translate(213,48)"/>
<path d="M0 0 C2.8233967 3.19489626 3.93364096 5.10415297 4.25 9.375 C4.1675 10.24125 4.085 11.1075 4 12 C3.62875 11.4225 3.2575 10.845 2.875 10.25 C1.02145459 7.80912815 1.02145459 7.80912815 -2 6 C-4.75223662 4.16517558 -6.23674444 2.74284198 -8 0 C-4.9637583 -1.51812085 -3.20988224 -0.96296467 0 0 Z " fill="#F4F2E9" transform="translate(156,66)"/>
<path d="M0 0 C5.71981884 -0.41852333 10.4105606 0.84213383 14.875 4.5625 C17.72604616 8.20550342 17.07213413 11.52768397 17 16 C16.34 16 15.68 16 15 16 C14.938125 14.7625 14.87625 13.525 14.8125 12.25 C14.39439016 9.09466441 14.12243018 8.14538584 12 5.625 C8.11957536 3.52310332 4.32778939 2.71658386 0 2 C0 1.34 0 0.68 0 0 Z " fill="#231625" transform="translate(239,128)"/>
<path d="M0 0 C0 1.65 0 3.3 0 5 C-0.515625 4.67 -1.03125 4.34 -1.5625 4 C-4.9512095 2.60976021 -7.3548828 2.62931012 -11 3 C-13.53409304 4.13393269 -15.66202311 5.47315795 -18 7 C-18 5.02 -18 3.04 -18 1 C-11.95170514 0.10395632 -6.1105424 -0.11269443 0 0 Z " fill="#FAF7F8" transform="translate(125,224)"/>
<path d="M0 0 C2.5 0.25 2.5 0.25 4.5 2.25 C4.125 5.375 4.125 5.375 3.5 8.25 C0.625 8.875 0.625 8.875 -2.5 9.25 C-4.5 7.25 -4.5 7.25 -4.75 4.75 C-4.40058445 1.25584452 -3.49415548 0.34941555 0 0 Z M-1.5 2.25 C-1.5 3.57 -1.5 4.89 -1.5 6.25 C-0.51 6.25 0.48 6.25 1.5 6.25 C1.5 5.26 1.5 4.27 1.5 3.25 C0.51 2.92 -0.48 2.59 -1.5 2.25 Z " fill="#241726" transform="translate(55.5,172.75)"/>
<path d="M0 0 C0.33 0 0.66 0 1 0 C2.59162079 5.57067277 3.20674944 10.21101581 3 16 C2.34 15.67 1.68 15.34 1 15 C1 12.69 1 10.38 1 8 C-3.62 8.33 -8.24 8.66 -13 9 C-13.33 8.34 -13.66 7.68 -14 7 C-9.38 6.67 -4.76 6.34 0 6 C0 4.02 0 2.04 0 0 Z " fill="#645964" transform="translate(124,216)"/>
<path d="M0 0 C3.125 0.375 3.125 0.375 6 1 C6.6875 3.3125 6.6875 3.3125 7 6 C5.875 7.875 5.875 7.875 4 9 C-0.42105263 8.57894737 -0.42105263 8.57894737 -2 7 C-2.1875 4.5625 -2.1875 4.5625 -2 2 C-1.34 1.34 -0.68 0.68 0 0 Z M1 2 C0.67 3.32 0.34 4.64 0 6 C1.32 6 2.64 6 4 6 C3.67 4.68 3.34 3.36 3 2 C2.34 2 1.68 2 1 2 Z " fill="#231726" transform="translate(171,222)"/>
<path d="M0 0 C2.625 0.625 2.625 0.625 5 2 C5.9375 3.9375 5.9375 3.9375 6 6 C5.01 7.485 5.01 7.485 4 9 C1.5 9.3125 1.5 9.3125 -1 9 C-3 7 -3 7 -3.3125 4.5 C-3.209375 3.675 -3.10625 2.85 -3 2 C-2.01 1.34 -1.02 0.68 0 0 Z M0 3 C0 4.32 0 5.64 0 7 C0.99 7 1.98 7 3 7 C3 5.68 3 4.36 3 3 C2.01 3 1.02 3 0 3 Z " fill="#231725" transform="translate(231,98)"/>
<path d="M0 0 C4.875 0.875 4.875 0.875 6 2 C6.1875 4.4375 6.1875 4.4375 6 7 C4 9 4 9 1.375 9.125 C0.59125 9.08375 -0.1925 9.0425 -1 9 C-2.1875 6.75 -2.1875 6.75 -3 4 C-1.625 1.6875 -1.625 1.6875 0 0 Z M0 3 C0.33 4.32 0.66 5.64 1 7 C1.99 6.67 2.98 6.34 4 6 C4 5.01 4 4.02 4 3 C2.68 3 1.36 3 0 3 Z " fill="#231625" transform="translate(95,16)"/>
<path d="M0 0 C-0.53367187 0.21785156 -1.06734375 0.43570313 -1.6171875 0.66015625 C-4.85483804 2.48067123 -7.42627977 4.91935107 -10.125 7.4375 C-10.93130859 8.17323242 -10.93130859 8.17323242 -11.75390625 8.92382812 C-14.18872383 11.17345384 -16.15245155 13.22867732 -18 16 C-18.66 16 -19.32 16 -20 16 C-19.07504827 9.99451629 -13.76407293 6.30339411 -9.3125 2.59375 C-6.16189445 0.29643345 -3.87735096 -0.45615894 0 0 Z " fill="#3A2F3C" transform="translate(30,147)"/>
<path d="M0 0 C0.8353125 0.37125 0.8353125 0.37125 1.6875 0.75 C1.0275 0.75 0.3675 0.75 -0.3125 0.75 C-0.6425 2.73 -0.9725 4.71 -1.3125 6.75 C-2.7665625 7.183125 -2.7665625 7.183125 -4.25 7.625 C-7.41914203 8.39214682 -7.41914203 8.39214682 -8.3125 10.75 C-8.07084074 6.56123944 -7.89831114 4.38330934 -5 1.25 C-2.3125 -0.25 -2.3125 -0.25 0 0 Z " fill="#FCFBF9" transform="translate(148.3125,65.25)"/>
<path d="M0 0 C5.62190926 1.36288709 8.76936982 5.47558664 12 10 C13.54844865 12.92937507 14.84335543 15.8964568 16 19 C13 18 13 18 11.89453125 16.1796875 C11.53746094 15.41914063 11.18039063 14.65859375 10.8125 13.875 C8.4445952 9.32077819 5.59013338 6.55014126 1.57421875 3.41015625 C1.05472656 2.94480469 0.53523437 2.47945312 0 2 C0 1.34 0 0.68 0 0 Z " fill="#2F2230" transform="translate(190,129)"/>
<path d="M0 0 C0.99 0.495 0.99 0.495 2 1 C2 1.99 2 2.98 2 4 C8.27 4 14.54 4 21 4 C21 4.33 21 4.66 21 5 C14.73 5 8.46 5 2 5 C2 7.97 2 10.94 2 14 C1.67 14 1.34 14 1 14 C-0.20568053 9.32798795 -0.09382426 4.78503708 0 0 Z " fill="#352837" transform="translate(105,112)"/>
<path d="M0 0 C1.32 0.66 2.64 1.32 4 2 C3.67 3.65 3.34 5.3 3 7 C0 8 0 8 -2.1875 7.0625 C-2.785625 6.711875 -3.38375 6.36125 -4 6 C-3.34 6 -2.68 6 -2 6 C-1.855625 5.195625 -1.71125 4.39125 -1.5625 3.5625 C-1 1 -1 1 0 0 Z " fill="#918B92" transform="translate(164,22)"/>
<path d="M0 0 C1.32 0.66 2.64 1.32 4 2 C3.67 4.31 3.34 6.62 3 9 C1.0625 8.3125 1.0625 8.3125 -1 7 C-1.875 4.5 -1.875 4.5 -2 2 C-1.34 1.34 -0.68 0.68 0 0 Z " fill="#9B959C" transform="translate(233,58)"/>
<path d="M0 0 C1.32 0 2.64 0 4 0 C4.33 1.65 4.66 3.3 5 5 C3.02 5.99 3.02 5.99 1 7 C0.34 6.34 -0.32 5.68 -1 5 C-0.625 2.375 -0.625 2.375 0 0 Z " fill="#948E96" transform="translate(223,48)"/>
<path d="M0 0 C1.32 0 2.64 0 4 0 C4.33 1.65 4.66 3.3 5 5 C3.02 5.99 3.02 5.99 1 7 C0.34 6.34 -0.32 5.68 -1 5 C-0.625 2.375 -0.625 2.375 0 0 Z " fill="#938D95" transform="translate(172,12)"/>
<path d="M0 0 C1.32 0.66 2.64 1.32 4 2 C3.67 3.65 3.34 5.3 3 7 C2.01 7.33 1.02 7.66 0 8 C-0.66 6.02 -1.32 4.04 -2 2 C-1.34 1.34 -0.68 0.68 0 0 Z " fill="#989299" transform="translate(53,208)"/>
<path d="M0 0 C0.33 0 0.66 0 1 0 C1.91657981 5.38490641 2.11138159 10.54230189 2 16 C1.34 15.67 0.68 15.34 0 15 C0 13.02 0 11.04 0 9 C-2.31 9 -4.62 9 -7 9 C-7 8.67 -7 8.34 -7 8 C-4.69 8 -2.38 8 0 8 C0 5.36 0 2.72 0 0 Z " fill="#403441" transform="translate(156,213)"/>
<path d="M0 0 C1.32 0.66 2.64 1.32 4 2 C4 3.65 4 5.3 4 7 C2.68 7 1.36 7 0 7 C-1.125 2.25 -1.125 2.25 0 0 Z " fill="#857E86" transform="translate(61,197)"/>
<path d="M0 0 C0.33 0 0.66 0 1 0 C1 2.31 1 4.62 1 7 C2.65 7 4.3 7 6 7 C6 7.33 6 7.66 6 8 C4.35 8 2.7 8 1 8 C0.67 10.97 0.34 13.94 0 17 C-0.33 17 -0.66 17 -1 17 C-1.10477512 11.21408489 -0.99250545 5.70690634 0 0 Z " fill="#241726" transform="translate(141,194)"/>
<path d="M0 0 C0.33 0 0.66 0 1 0 C1 1.98 1 3.96 1 6 C2.65 6 4.3 6 6 6 C4 8 4 8 1.3984375 8.1953125 C0.40070313 8.17210937 -0.59703125 8.14890625 -1.625 8.125 C-3.12933594 8.09792969 -3.12933594 8.09792969 -4.6640625 8.0703125 C-5.43492187 8.04710937 -6.20578125 8.02390625 -7 8 C-4.35261084 6.5393715 -3.10551666 6 0 6 C0 4.02 0 2.04 0 0 Z " fill="#342836" transform="translate(172,136)"/>
<path d="M0 0 C0.99 0.33 1.98 0.66 3 1 C3 2.98 3 4.96 3 7 C1.68 6.67 0.36 6.34 -1 6 C-1.042721 4.33388095 -1.04063832 2.66617115 -1 1 C-0.67 0.67 -0.34 0.34 0 0 Z " fill="#776F79" transform="translate(220,60)"/>
<path d="M0 0 C1.65 0.33 3.3 0.66 5 1 C4.67 1.99 4.34 2.98 4 4 C2.35 4.33 0.7 4.66 -1 5 C-0.67 3.35 -0.34 1.7 0 0 Z " fill="#857E86" transform="translate(182,18)"/>
<path d="M0 0 C1.29315061 0.95632999 2.58446853 1.91513851 3.875 2.875 C4.59429687 3.40867188 5.31359375 3.94234375 6.0546875 4.4921875 C8 6 8 6 10 8 C6.05783322 7.7312159 4.43510186 7.44655191 1.625 4.5625 C0 2 0 2 0 0 Z " fill="#2F2131" transform="translate(55,128)"/>
<path d="M0 0 C2.475 0.495 2.475 0.495 5 1 C5 2.32 5 3.64 5 5 C3.35 4.67 1.7 4.34 0 4 C0 2.68 0 1.36 0 0 Z " fill="#878089" transform="translate(213,54)"/>
<path d="M0 0 C0.66 0 1.32 0 2 0 C2 1.32 2 2.64 2 4 C3.65 3.67 5.3 3.34 7 3 C7 3.66 7 4.32 7 5 C5.0085944 5.38133299 3.00720923 5.71325582 1 6 C0 5 0 5 -0.0625 2.4375 C-0.041875 1.633125 -0.02125 0.82875 0 0 Z " fill="#3A2F3C" transform="translate(14,172)"/>
<path d="M0 0 C0.66 0 1.32 0 2 0 C2 1.32 2 2.64 2 4 C3.65 3.67 5.3 3.34 7 3 C7 3.66 7 4.32 7 5 C5.0085944 5.38133299 3.00720923 5.71325582 1 6 C0 5 0 5 -0.0625 2.4375 C-0.041875 1.633125 -0.02125 0.82875 0 0 Z " fill="#3E3340" transform="translate(5,167)"/>
<path d="M0 0 C2.60018816 3.90028225 2.15085514 7.47434569 2 12 C0.5393715 9.35261084 0 8.10551666 0 5 C-1.32 4.67 -2.64 4.34 -4 4 C-2.68 4 -1.36 4 0 4 C0 2.68 0 1.36 0 0 Z " fill="#322534" transform="translate(141,111)"/>
<path d="M0 0 C0 0.99 0 1.98 0 3 C-2.8125 4.5625 -2.8125 4.5625 -6 6 C-6.99 5.67 -7.98 5.34 -9 5 C-8.443125 4.731875 -7.88625 4.46375 -7.3125 4.1875 C-4.80287477 2.89877353 -2.40665764 1.47073522 0 0 Z " fill="#352836" transform="translate(189,29)"/>
<path d="M0 0 C1.125 3.75 1.125 3.75 0 6 C-1.65 5.67 -3.3 5.34 -5 5 C-5 4.01 -5 3.02 -5 2 C-3.02 2.495 -3.02 2.495 -1 3 C-0.67 2.01 -0.34 1.02 0 0 Z " fill="#2F2432" transform="translate(225,216)"/>
<path d="M0 0 C0.6875 1.8125 0.6875 1.8125 1 4 C-0.1875 5.8125 -0.1875 5.8125 -2 7 C-4.1875 6.6875 -4.1875 6.6875 -6 6 C-5.195625 5.38125 -4.39125 4.7625 -3.5625 4.125 C-0.96125481 2.25835959 -0.96125481 2.25835959 0 0 Z " fill="#413643" transform="translate(79,211)"/>
<path d="M0 0 C0.66 0 1.32 0 2 0 C2 0.66 2 1.32 2 2 C1.34 2 0.68 2 0 2 C0 1.34 0 0.68 0 0 Z " fill="#241725" transform="translate(236,128)"/>
</svg>
